<svg xmlns="http://www.w3.org/2000/svg" xmlns:xlink="http://www.w3.org/1999/xlink" width="500" zoomAndPan="magnify" viewBox="0 0 375 374.999991" height="500" preserveAspectRatio="xMidYMid meet" version="1.0"><defs><clipPath id="201bd98860"><path d="M 242 311 L 268 311 L 268 323.855469 L 242 323.855469 Z M 242 311 " clip-rule="nonzero"/></clipPath><clipPath id="3f003a7d5d"><path d="M 0 3 L 375 3 L 375 323.855469 L 0 323.855469 Z M 0 3 " clip-rule="nonzero"/></clipPath></defs><path fill="#80d4ff" d="M 20.089844 72.453125 L 354.910156 72.453125 C 362.882812 72.453125 369.261719 78.828125 369.261719 86.796875 L 369.261719 303.210938 C 369.261719 311.179688 362.882812 317.554688 354.910156 317.554688 L 20.089844 317.554688 C 12.117188 317.554688 5.738281 311.179688 5.738281 303.210938 L 5.738281 86.796875 C 5.738281 78.828125 12.117188 72.453125 20.089844 72.453125 Z M 20.089844 72.453125 " fill-opacity="1" fill-rule="nonzero"/><path fill="#6ebaff" d="M 364.796875 76.277344 L 198.023438 222.890625 C 191.964844 228.308594 183.035156 228.308594 176.976562 222.890625 L 10.203125 76.277344 C 12.753906 73.726562 16.261719 72.453125 20.089844 72.453125 L 354.910156 72.453125 C 358.738281 72.453125 362.246094 73.726562 364.796875 76.277344 Z M 364.796875 76.277344 " fill-opacity="1" fill-rule="nonzero"/><path fill="#eef4ff" d="M 251.59375 72.453125 C 251.59375 73.5 251.570312 74.546875 251.515625 75.597656 C 251.464844 76.644531 251.386719 77.6875 251.285156 78.730469 C 251.183594 79.773438 251.054688 80.816406 250.902344 81.851562 C 250.746094 82.890625 250.566406 83.921875 250.363281 84.949219 C 250.15625 85.980469 249.929688 87 249.671875 88.019531 C 249.417969 89.035156 249.140625 90.046875 248.835938 91.050781 C 248.53125 92.050781 248.199219 93.046875 247.847656 94.035156 C 247.496094 95.023438 247.117188 96 246.714844 96.96875 C 246.3125 97.9375 245.890625 98.894531 245.441406 99.84375 C 244.992188 100.792969 244.519531 101.726562 244.027344 102.652344 C 243.53125 103.578125 243.015625 104.488281 242.476562 105.386719 C 241.9375 106.289062 241.375 107.171875 240.792969 108.042969 C 240.210938 108.917969 239.605469 109.773438 238.980469 110.617188 C 238.355469 111.457031 237.710938 112.285156 237.046875 113.09375 C 236.378906 113.90625 235.695312 114.699219 234.992188 115.476562 C 234.285156 116.253906 233.5625 117.011719 232.820312 117.753906 C 232.078125 118.492188 231.320312 119.214844 230.542969 119.921875 C 229.765625 120.625 228.972656 121.308594 228.160156 121.976562 C 227.351562 122.640625 226.523438 123.285156 225.679688 123.910156 C 224.839844 124.535156 223.980469 125.136719 223.109375 125.71875 C 222.238281 126.300781 221.351562 126.863281 220.449219 127.402344 C 219.550781 127.941406 218.640625 128.457031 217.714844 128.953125 C 216.789062 129.445312 215.851562 129.917969 214.902344 130.367188 C 213.957031 130.8125 212.996094 131.238281 212.027344 131.640625 C 211.058594 132.042969 210.082031 132.417969 209.09375 132.773438 C 208.105469 133.125 207.109375 133.453125 206.105469 133.757812 C 205.101562 134.0625 204.089844 134.34375 203.074219 134.597656 C 202.054688 134.851562 201.03125 135.082031 200.003906 135.285156 C 198.976562 135.488281 197.941406 135.667969 196.90625 135.824219 C 195.867188 135.976562 194.828125 136.105469 193.78125 136.207031 C 192.738281 136.3125 191.691406 136.386719 190.644531 136.441406 C 189.597656 136.492188 188.550781 136.515625 187.5 136.515625 C 186.449219 136.515625 185.402344 136.492188 184.355469 136.441406 C 183.308594 136.386719 182.261719 136.3125 181.21875 136.207031 C 180.171875 136.105469 179.132812 135.976562 178.09375 135.824219 C 177.058594 135.667969 176.023438 135.488281 174.996094 135.285156 C 173.96875 135.082031 172.945312 134.851562 171.925781 134.597656 C 170.910156 134.34375 169.898438 134.0625 168.894531 133.757812 C 167.890625 133.453125 166.894531 133.125 165.90625 132.773438 C 164.917969 132.417969 163.941406 132.042969 162.972656 131.640625 C 162.003906 131.238281 161.042969 130.8125 160.097656 130.367188 C 159.148438 129.917969 158.210938 129.445312 157.285156 128.953125 C 156.359375 128.457031 155.449219 127.941406 154.550781 127.402344 C 153.648438 126.863281 152.761719 126.300781 151.890625 125.71875 C 151.019531 125.136719 150.160156 124.535156 149.320312 123.910156 C 148.476562 123.285156 147.648438 122.640625 146.839844 121.976562 C 146.027344 121.308594 145.234375 120.625 144.457031 119.921875 C 143.679688 119.214844 142.921875 118.492188 142.179688 117.753906 C 141.4375 117.011719 140.714844 116.253906 140.007812 115.476562 C 139.304688 114.699219 138.621094 113.90625 137.953125 113.09375 C 137.289062 112.285156 136.644531 111.457031 136.019531 110.617188 C 135.394531 109.773438 134.789062 108.917969 134.207031 108.042969 C 133.625 107.171875 133.0625 106.289062 132.523438 105.386719 C 131.984375 104.488281 131.46875 103.578125 130.972656 102.652344 C 130.480469 101.726562 130.007812 100.792969 129.558594 99.84375 C 129.109375 98.894531 128.6875 97.9375 128.285156 96.96875 C 127.882812 96 127.503906 95.023438 127.152344 94.035156 C 126.800781 93.046875 126.46875 92.050781 126.164062 91.050781 C 125.859375 90.046875 125.582031 89.035156 125.328125 88.019531 C 125.070312 87 124.84375 85.980469 124.636719 84.949219 C 124.433594 83.921875 124.253906 82.890625 124.097656 81.851562 C 123.945312 80.816406 123.816406 79.773438 123.714844 78.730469 C 123.613281 77.6875 123.535156 76.644531 123.484375 75.597656 C 123.429688 74.546875 123.40625 73.5 123.40625 72.453125 C 123.40625 71.402344 123.429688 70.355469 123.484375 69.308594 C 123.535156 68.261719 123.613281 67.214844 123.714844 66.171875 C 123.816406 65.128906 123.945312 64.089844 124.097656 63.050781 C 124.253906 62.015625 124.433594 60.980469 124.636719 59.953125 C 124.84375 58.925781 125.070312 57.902344 125.328125 56.886719 C 125.582031 55.867188 125.859375 54.859375 126.164062 53.855469 C 126.46875 52.851562 126.800781 51.855469 127.152344 50.871094 C 127.503906 49.882812 127.882812 48.90625 128.285156 47.9375 C 128.6875 46.96875 129.109375 46.007812 129.558594 45.0625 C 130.007812 44.113281 130.480469 43.175781 130.972656 42.253906 C 131.46875 41.328125 131.984375 40.417969 132.523438 39.515625 C 133.0625 38.617188 133.625 37.730469 134.207031 36.859375 C 134.789062 35.988281 135.394531 35.132812 136.019531 34.289062 C 136.644531 33.445312 137.289062 32.621094 137.953125 31.808594 C 138.621094 31 139.304688 30.207031 140.007812 29.429688 C 140.714844 28.652344 141.4375 27.894531 142.179688 27.152344 C 142.921875 26.410156 143.679688 25.6875 144.457031 24.984375 C 145.234375 24.28125 146.027344 23.59375 146.839844 22.929688 C 147.648438 22.265625 148.476562 21.621094 149.320312 20.996094 C 150.160156 20.371094 151.019531 19.765625 151.890625 19.183594 C 152.761719 18.601562 153.648438 18.042969 154.550781 17.503906 C 155.449219 16.964844 156.359375 16.445312 157.285156 15.953125 C 158.210938 15.457031 159.148438 14.988281 160.097656 14.539062 C 161.042969 14.089844 162.003906 13.664062 162.972656 13.265625 C 163.941406 12.863281 164.917969 12.484375 165.90625 12.132812 C 166.894531 11.78125 167.890625 11.449219 168.894531 11.148438 C 169.898438 10.84375 170.910156 10.5625 171.925781 10.308594 C 172.945312 10.054688 173.96875 9.824219 174.996094 9.617188 C 176.023438 9.414062 177.058594 9.234375 178.09375 9.082031 C 179.132812 8.925781 180.171875 8.800781 181.21875 8.695312 C 182.261719 8.59375 183.308594 8.515625 184.355469 8.464844 C 185.402344 8.414062 186.449219 8.386719 187.5 8.386719 C 188.550781 8.386719 189.597656 8.414062 190.644531 8.464844 C 191.691406 8.515625 192.738281 8.59375 193.78125 8.695312 C 194.828125 8.800781 195.867188 8.925781 196.90625 9.082031 C 197.941406 9.234375 198.976562 9.414062 200.003906 9.617188 C 201.03125 9.824219 202.054688 10.054688 203.074219 10.308594 C 204.089844 10.5625 205.101562 10.84375 206.105469 11.148438 C 207.109375 11.449219 208.105469 11.78125 209.09375 12.132812 C 210.082031 12.484375 211.058594 12.863281 212.027344 13.265625 C 212.996094 13.664062 213.957031 14.089844 214.902344 14.539062 C 215.851562 14.988281 216.789062 15.457031 217.714844 15.953125 C 218.640625 16.445312 219.550781 16.964844 220.449219 17.503906 C 221.351562 18.042969 222.238281 18.601562 223.109375 19.183594 C 223.980469 19.765625 224.839844 20.371094 225.679688 20.996094 C 226.523438 21.621094 227.351562 22.265625 228.160156 22.929688 C 228.972656 23.59375 229.765625 24.28125 230.542969 24.984375 C 231.320312 25.6875 232.078125 26.410156 232.820312 27.152344 C 233.5625 27.894531 234.285156 28.652344 234.992188 29.429688 C 235.695312 30.207031 236.378906 31 237.046875 31.808594 C 237.710938 32.621094 238.355469 33.445312 238.980469 34.289062 C 239.605469 35.132812 240.210938 35.988281 240.792969 36.859375 C 241.375 37.730469 241.9375 38.617188 242.476562 39.515625 C 243.015625 40.417969 243.53125 41.328125 244.027344 42.253906 C 244.519531 43.175781 244.992188 44.113281 245.441406 45.0625 C 245.890625 46.007812 246.3125 46.96875 246.714844 47.9375 C 247.117188 48.90625 247.496094 49.882812 247.847656 50.871094 C 248.199219 51.855469 248.53125 52.851562 248.835938 53.855469 C 249.140625 54.859375 249.417969 55.867188 249.671875 56.886719 C 249.929688 57.902344 250.15625 58.925781 250.363281 59.953125 C 250.566406 60.980469 250.746094 62.015625 250.902344 63.050781 C 251.054688 64.089844 251.183594 65.128906 251.285156 66.171875 C 251.386719 67.214844 251.464844 68.261719 251.515625 69.308594 C 251.570312 70.355469 251.59375 71.402344 251.59375 72.453125 Z M 251.59375 72.453125 " fill-opacity="1" fill-rule="nonzero"/><path fill="#000000" d="M 192.28125 34.207031 L 182.71875 34.207031 C 164.222656 34.207031 149.234375 49.183594 149.234375 67.671875 L 149.234375 77.234375 C 149.234375 95.71875 164.222656 110.699219 182.71875 110.699219 L 188.136719 110.699219 C 191.328125 110.699219 193.558594 108.148438 193.558594 104.960938 C 193.558594 101.773438 191.007812 99.226562 188.136719 99.226562 L 182.71875 99.226562 C 170.28125 99.226562 160.394531 89.34375 160.394531 76.914062 L 160.394531 67.351562 C 160.394531 54.921875 170.28125 45.042969 182.71875 45.042969 L 192.28125 45.042969 C 204.71875 45.042969 214.605469 54.921875 214.605469 67.351562 L 214.605469 84.246094 C 214.605469 85.839844 213.328125 87.113281 211.734375 87.113281 L 208.226562 87.113281 C 206.632812 87.113281 205.355469 85.839844 205.355469 84.246094 L 205.355469 68.628906 C 205.355469 60.660156 198.980469 54.285156 191.007812 54.285156 L 184.3125 54.285156 C 176.339844 54.285156 169.960938 60.660156 169.960938 68.628906 L 169.960938 75.320312 C 169.960938 83.289062 176.339844 89.664062 184.3125 89.664062 L 195.472656 89.664062 C 197.703125 94.761719 202.488281 98.269531 208.226562 98.269531 L 211.734375 98.269531 C 219.386719 98.269531 225.765625 91.894531 225.765625 84.246094 L 225.765625 67.351562 C 225.765625 49.183594 210.777344 34.207031 192.28125 34.207031 Z M 181.121094 75.957031 L 181.121094 69.265625 C 181.121094 67.671875 182.398438 66.078125 184.3125 66.078125 L 191.007812 66.078125 C 192.601562 66.078125 194.195312 67.351562 194.195312 69.265625 L 194.195312 79.144531 L 184.3125 79.144531 C 182.398438 79.144531 181.121094 77.550781 181.121094 75.957031 Z M 181.121094 75.957031 " fill-opacity="1" fill-rule="nonzero"/><g clip-path="url(#201bd98860)"><path fill="#000000" d="M 262.117188 311.816406 L 247.769531 311.816406 C 244.578125 311.816406 242.027344 314.367188 242.027344 317.554688 C 242.027344 320.742188 244.578125 323.292969 247.769531 323.292969 L 262.117188 323.292969 C 265.304688 323.292969 267.855469 320.742188 267.855469 317.554688 C 267.855469 314.367188 265.304688 311.816406 262.117188 311.816406 Z M 262.117188 311.816406 " fill-opacity="1" fill-rule="nonzero"/></g><g clip-path="url(#3f003a7d5d)"><path fill="#000000" d="M 354.910156 67.035156 L 256.695312 67.035156 C 253.507812 28.785156 220.027344 0.101562 181.761719 3.289062 C 164.539062 4.5625 148.277344 12.53125 136.480469 25.28125 C 134.246094 27.511719 134.566406 31.019531 136.796875 33.25 C 139.03125 35.480469 142.539062 35.160156 144.769531 32.929688 C 155.929688 21.136719 171.238281 14.445312 187.5 14.445312 C 219.707031 14.445312 245.855469 40.578125 245.855469 72.769531 C 245.855469 104.960938 219.707031 130.78125 187.5 130.78125 C 155.292969 130.78125 129.144531 104.644531 129.144531 72.453125 C 129.144531 66.714844 130.101562 60.976562 131.695312 55.558594 C 132.652344 52.691406 131.058594 49.503906 127.871094 48.546875 C 125 47.589844 121.8125 49.183594 120.855469 52.371094 C 119.261719 57.152344 118.621094 62.253906 117.984375 67.035156 L 20.089844 67.035156 C 9.246094 67.035156 0.320312 75.957031 0 86.796875 L 0 303.210938 C 0 314.367188 8.929688 322.972656 20.089844 323.292969 L 216.835938 323.292969 C 220.027344 323.292969 222.578125 320.742188 222.578125 317.554688 C 222.578125 314.367188 220.027344 311.816406 216.835938 311.816406 L 20.40625 311.816406 L 144.769531 202.492188 L 173.152344 227.355469 C 181.441406 234.367188 193.558594 234.367188 201.53125 227.355469 L 229.910156 202.492188 L 354.273438 312.136719 L 291.453125 312.136719 C 288.265625 312.136719 285.714844 314.683594 285.714844 317.871094 C 285.714844 321.058594 288.265625 323.609375 291.453125 323.609375 L 354.910156 323.609375 C 366.070312 323.609375 374.679688 314.683594 375 303.53125 L 375 86.796875 C 374.679688 75.957031 365.753906 67.035156 354.910156 67.035156 Z M 11.480469 304.804688 C 11.480469 304.167969 11.160156 303.53125 11.160156 302.890625 L 11.160156 86.796875 C 11.160156 86.15625 11.160156 85.519531 11.480469 84.882812 L 136.480469 194.84375 Z M 194.195312 218.75 C 190.371094 222.253906 184.3125 222.253906 180.484375 218.75 L 20.40625 78.191406 L 117.984375 78.191406 C 121.171875 116.4375 154.65625 145.121094 192.921875 141.933594 C 227.039062 139.066406 253.828125 112.292969 256.695312 78.191406 L 354.273438 78.191406 Z M 363.519531 84.882812 C 363.519531 85.519531 363.839844 86.15625 363.839844 86.796875 L 363.839844 303.210938 C 363.839844 303.847656 363.839844 304.484375 363.519531 305.125 L 238.519531 194.84375 Z M 363.519531 84.882812 " fill-opacity="1" fill-rule="nonzero"/></g></svg>