<svg xmlns="http://www.w3.org/2000/svg" xmlns:xlink="http://www.w3.org/1999/xlink" width="500" zoomAndPan="magnify" viewBox="0 0 375 374.999991" height="500" preserveAspectRatio="xMidYMid meet" version="1.0"><defs><clipPath id="7e4d9f2927"><path d="M 5.453125 23 L 358 23 L 358 375 L 5.453125 375 Z M 5.453125 23 " clip-rule="nonzero"/></clipPath><clipPath id="8d652f41cc"><path d="M 224 0 L 369.203125 0 L 369.203125 146 L 224 146 Z M 224 0 " clip-rule="nonzero"/></clipPath></defs><g clip-path="url(#7e4d9f2927)"><path fill="#46cc6b" d="M 357.066406 199.199219 C 357.066406 296.257812 278.335938 374.941406 181.214844 374.941406 C 146.800781 374.941406 114.699219 365.0625 87.59375 347.992188 L 5.355469 364.175781 L 38.660156 302.128906 C 17.707031 273.199219 5.355469 237.640625 5.355469 199.199219 C 5.355469 102.140625 84.09375 23.457031 181.214844 23.457031 C 195.722656 23.457031 209.820312 25.210938 223.304688 28.523438 C 215.507812 41.460938 211.023438 56.613281 211.023438 72.8125 C 211.023438 120.304688 249.546875 158.800781 297.066406 158.800781 C 315.976562 158.800781 333.46875 152.703125 347.667969 142.367188 C 353.761719 160.191406 357.066406 179.308594 357.066406 199.199219 Z M 357.066406 199.199219 " fill-opacity="1" fill-rule="nonzero"/></g><path fill="#ffffff" d="M 154.128906 154.648438 L 144.789062 126.769531 C 140.609375 114.285156 127.089844 107.554688 114.597656 111.730469 C 113.746094 112.015625 112.910156 112.351562 112.09375 112.730469 L 97.03125 119.742188 C 86.921875 124.457031 81.429688 135.539062 83.796875 146.429688 C 93.226562 190.003906 127.882812 294.339844 244.894531 307.347656 C 254.390625 308.40625 263.601562 303.703125 268.308594 295.398438 L 276.074219 281.683594 C 282.5625 270.222656 278.53125 255.679688 267.066406 249.191406 L 266.902344 249.101562 L 246.046875 237.519531 C 236.773438 232.367188 225.207031 233.957031 217.667969 241.421875 C 210.1875 248.851562 198.707031 250.476562 189.453125 245.421875 C 176.773438 238.457031 159.390625 226.582031 147.207031 209.042969 C 141.59375 200.992188 141.464844 190.335938 146.890625 182.15625 L 151.371094 175.417969 C 155.449219 169.292969 156.46875 161.625 154.128906 154.648438 Z M 154.128906 154.648438 " fill-opacity="1" fill-rule="nonzero"/><g clip-path="url(#8d652f41cc)"><path fill="#ef1c26" d="M 369.847656 72.816406 C 369.847656 74.003906 369.820312 75.195312 369.761719 76.382812 C 369.703125 77.574219 369.613281 78.757812 369.496094 79.945312 C 369.378906 81.128906 369.234375 82.308594 369.058594 83.488281 C 368.886719 84.664062 368.683594 85.835938 368.449219 87.003906 C 368.21875 88.171875 367.957031 89.332031 367.667969 90.488281 C 367.378906 91.644531 367.058594 92.789062 366.714844 93.929688 C 366.367188 95.066406 365.996094 96.199219 365.59375 97.320312 C 365.191406 98.4375 364.765625 99.550781 364.308594 100.648438 C 363.851562 101.75 363.371094 102.835938 362.859375 103.914062 C 362.351562 104.988281 361.816406 106.050781 361.253906 107.101562 C 360.691406 108.152344 360.105469 109.1875 359.492188 110.207031 C 358.882812 111.230469 358.242188 112.234375 357.582031 113.222656 C 356.921875 114.214844 356.234375 115.1875 355.523438 116.144531 C 354.816406 117.097656 354.082031 118.035156 353.328125 118.957031 C 352.570312 119.878906 351.792969 120.777344 350.996094 121.660156 C 350.195312 122.542969 349.375 123.402344 348.53125 124.246094 C 347.6875 125.085938 346.828125 125.90625 345.945312 126.707031 C 345.0625 127.507812 344.160156 128.285156 343.238281 129.039062 C 342.316406 129.792969 341.378906 130.527344 340.421875 131.234375 C 339.464844 131.945312 338.492188 132.628906 337.5 133.292969 C 336.511719 133.953125 335.503906 134.589844 334.484375 135.203125 C 333.460938 135.8125 332.425781 136.398438 331.375 136.960938 C 330.324219 137.523438 329.261719 138.058594 328.183594 138.566406 C 327.109375 139.074219 326.019531 139.558594 324.917969 140.011719 C 323.820312 140.46875 322.707031 140.898438 321.585938 141.296875 C 320.464844 141.699219 319.332031 142.070312 318.195312 142.417969 C 317.054688 142.761719 315.90625 143.082031 314.75 143.371094 C 313.597656 143.660156 312.433594 143.917969 311.265625 144.152344 C 310.097656 144.382812 308.925781 144.585938 307.746094 144.761719 C 306.566406 144.9375 305.386719 145.082031 304.199219 145.199219 C 303.015625 145.316406 301.828125 145.402344 300.636719 145.460938 C 299.449219 145.519531 298.257812 145.550781 297.066406 145.550781 C 295.875 145.550781 294.683594 145.519531 293.496094 145.460938 C 292.304688 145.402344 291.117188 145.316406 289.933594 145.199219 C 288.746094 145.082031 287.566406 144.9375 286.386719 144.761719 C 285.210938 144.585938 284.035156 144.382812 282.867188 144.152344 C 281.699219 143.917969 280.539062 143.660156 279.382812 143.371094 C 278.226562 143.082031 277.078125 142.761719 275.941406 142.417969 C 274.800781 142.070312 273.667969 141.699219 272.546875 141.296875 C 271.425781 140.898438 270.316406 140.46875 269.214844 140.011719 C 268.113281 139.558594 267.027344 139.074219 265.949219 138.566406 C 264.871094 138.058594 263.808594 137.523438 262.757812 136.960938 C 261.707031 136.398438 260.671875 135.8125 259.648438 135.203125 C 258.628906 134.589844 257.621094 133.953125 256.632812 133.292969 C 255.640625 132.628906 254.667969 131.945312 253.710938 131.234375 C 252.753906 130.527344 251.816406 129.792969 250.894531 129.039062 C 249.972656 128.285156 249.074219 127.507812 248.191406 126.707031 C 247.308594 125.90625 246.445312 125.085938 245.601562 124.246094 C 244.761719 123.402344 243.9375 122.542969 243.140625 121.660156 C 242.339844 120.777344 241.5625 119.878906 240.804688 118.957031 C 240.050781 118.035156 239.316406 117.097656 238.609375 116.144531 C 237.898438 115.1875 237.214844 114.214844 236.550781 113.222656 C 235.890625 112.234375 235.253906 111.230469 234.640625 110.207031 C 234.027344 109.1875 233.441406 108.152344 232.878906 107.101562 C 232.316406 106.050781 231.78125 104.988281 231.273438 103.914062 C 230.765625 102.835938 230.28125 101.75 229.824219 100.648438 C 229.371094 99.550781 228.941406 98.4375 228.539062 97.320312 C 228.136719 96.199219 227.765625 95.066406 227.417969 93.929688 C 227.074219 92.789062 226.757812 91.644531 226.464844 90.488281 C 226.175781 89.332031 225.917969 88.171875 225.683594 87.003906 C 225.453125 85.835938 225.246094 84.664062 225.074219 83.488281 C 224.898438 82.308594 224.753906 81.128906 224.636719 79.945312 C 224.519531 78.757812 224.429688 77.574219 224.375 76.382812 C 224.316406 75.195312 224.285156 74.003906 224.285156 72.816406 C 224.285156 71.625 224.316406 70.433594 224.375 69.246094 C 224.429688 68.058594 224.519531 66.871094 224.636719 65.6875 C 224.753906 64.5 224.898438 63.320312 225.074219 62.140625 C 225.246094 60.964844 225.453125 59.792969 225.683594 58.625 C 225.917969 57.457031 226.175781 56.296875 226.464844 55.140625 C 226.757812 53.988281 227.074219 52.839844 227.417969 51.699219 C 227.765625 50.5625 228.140625 49.433594 228.539062 48.3125 C 228.941406 47.191406 229.371094 46.082031 229.824219 44.980469 C 230.28125 43.878906 230.765625 42.792969 231.273438 41.71875 C 231.78125 40.640625 232.316406 39.578125 232.878906 38.527344 C 233.441406 37.476562 234.027344 36.441406 234.640625 35.421875 C 235.253906 34.402344 235.890625 33.394531 236.550781 32.40625 C 237.214844 31.414062 237.898438 30.441406 238.609375 29.488281 C 239.316406 28.53125 240.050781 27.59375 240.804688 26.671875 C 241.5625 25.753906 242.339844 24.851562 243.140625 23.96875 C 243.9375 23.085938 244.761719 22.226562 245.601562 21.382812 C 246.445312 20.542969 247.308594 19.722656 248.191406 18.921875 C 249.074219 18.121094 249.972656 17.34375 250.894531 16.589844 C 251.816406 15.835938 252.753906 15.101562 253.710938 14.394531 C 254.667969 13.683594 255.640625 13 256.632812 12.339844 C 257.621094 11.675781 258.628906 11.039062 259.648438 10.429688 C 260.671875 9.816406 261.707031 9.230469 262.757812 8.667969 C 263.808594 8.109375 264.871094 7.574219 265.949219 7.0625 C 267.027344 6.554688 268.113281 6.074219 269.214844 5.617188 C 270.316406 5.160156 271.425781 4.734375 272.546875 4.332031 C 273.667969 3.929688 274.800781 3.558594 275.941406 3.210938 C 277.078125 2.867188 278.226562 2.550781 279.382812 2.261719 C 280.539062 1.972656 281.699219 1.710938 282.867188 1.476562 C 284.035156 1.246094 285.210938 1.042969 286.386719 0.867188 C 287.566406 0.691406 288.746094 0.546875 289.933594 0.429688 C 291.117188 0.3125 292.304688 0.226562 293.496094 0.167969 C 294.683594 0.109375 295.875 0.0820312 297.066406 0.0820312 C 298.257812 0.0820312 299.449219 0.109375 300.636719 0.167969 C 301.828125 0.226562 303.015625 0.3125 304.199219 0.429688 C 305.386719 0.546875 306.566406 0.691406 307.746094 0.867188 C 308.925781 1.042969 310.097656 1.246094 311.265625 1.476562 C 312.433594 1.710938 313.597656 1.972656 314.75 2.261719 C 315.90625 2.550781 317.054688 2.867188 318.195312 3.210938 C 319.332031 3.558594 320.464844 3.929688 321.585938 4.332031 C 322.707031 4.734375 323.820312 5.160156 324.917969 5.617188 C 326.019531 6.074219 327.109375 6.554688 328.183594 7.0625 C 329.261719 7.574219 330.324219 8.109375 331.375 8.667969 C 332.425781 9.230469 333.460938 9.816406 334.484375 10.429688 C 335.503906 11.039062 336.511719 11.675781 337.5 12.339844 C 338.492188 13 339.464844 13.683594 340.421875 14.394531 C 341.378906 15.101562 342.316406 15.835938 343.238281 16.589844 C 344.160156 17.34375 345.0625 18.121094 345.945312 18.921875 C 346.828125 19.722656 347.6875 20.542969 348.53125 21.382812 C 349.375 22.226562 350.195312 23.085938 350.996094 23.96875 C 351.792969 24.851562 352.570312 25.753906 353.328125 26.671875 C 354.082031 27.59375 354.816406 28.53125 355.523438 29.488281 C 356.234375 30.441406 356.921875 31.414062 357.582031 32.40625 C 358.242188 33.394531 358.882812 34.402344 359.492188 35.421875 C 360.105469 36.441406 360.691406 37.476562 361.253906 38.527344 C 361.816406 39.578125 362.351562 40.640625 362.859375 41.71875 C 363.371094 42.792969 363.851562 43.878906 364.308594 44.980469 C 364.765625 46.082031 365.191406 47.191406 365.59375 48.3125 C 365.996094 49.433594 366.367188 50.5625 366.714844 51.699219 C 367.058594 52.839844 367.378906 53.988281 367.667969 55.140625 C 367.957031 56.296875 368.21875 57.457031 368.449219 58.625 C 368.683594 59.792969 368.886719 60.964844 369.058594 62.140625 C 369.234375 63.320312 369.378906 64.5 369.496094 65.6875 C 369.613281 66.871094 369.703125 68.058594 369.761719 69.246094 C 369.820312 70.433594 369.847656 71.625 369.847656 72.816406 Z M 369.847656 72.816406 " fill-opacity="1" fill-rule="nonzero"/></g><path fill="#ffffff" d="M 311.625 111.605469 L 296.804688 111.605469 L 296.804688 55.792969 C 291.390625 60.851562 285.007812 64.589844 277.65625 67.015625 L 277.65625 53.578125 C 281.523438 52.3125 285.726562 49.910156 290.257812 46.382812 C 294.796875 42.855469 297.90625 38.730469 299.59375 34.023438 L 311.625 34.023438 Z M 311.625 111.605469 " fill-opacity="1" fill-rule="nonzero"/></svg>