<svg xmlns="http://www.w3.org/2000/svg" xmlns:xlink="http://www.w3.org/1999/xlink" width="500" zoomAndPan="magnify" viewBox="0 0 375 374.999991" height="500" preserveAspectRatio="xMidYMid meet" version="1.0"><path fill="#51a1a7" d="M 277.808594 11.054688 L 150.683594 1.203125 C 131.40625 -0.285156 113.480469 14.054688 110.644531 33.242188 L 67.253906 326.574219 C 64.417969 345.757812 77.742188 362.523438 97.015625 364.015625 L 224.144531 373.863281 C 243.417969 375.355469 261.34375 361.015625 264.179688 341.828125 L 307.570312 48.496094 C 310.40625 29.3125 297.082031 12.546875 277.808594 11.054688 " fill-opacity="1" fill-rule="nonzero"/><path fill="#3f434c" d="M 276.574219 19.40625 L 258.277344 17.992188 L 257.261719 19.871094 C 253.925781 26.050781 247.191406 29.800781 240.359375 29.269531 L 180.453125 24.628906 C 174.390625 24.160156 169.3125 20.390625 167.265625 14.835938 L 165.785156 10.824219 L 149.445312 9.558594 C 134.804688 8.425781 121.191406 19.316406 119.035156 33.890625 L 76.121094 324.007812 L 256.265625 337.964844 L 299.179688 47.847656 C 301.332031 33.277344 291.214844 20.542969 276.574219 19.40625 " fill-opacity="1" fill-rule="nonzero"/><path fill="#4f545b" d="M 114.960938 61.421875 C 114.960938 61.421875 162.828125 62.316406 177.253906 91.035156 C 191.679688 119.753906 209.953125 154.214844 228.933594 170.703125 C 247.910156 187.195312 276.902344 198.453125 276.902344 198.453125 L 268.417969 255.8125 C 268.417969 255.8125 195.542969 223.695312 171.96875 203.28125 C 148.394531 182.867188 150.261719 139.636719 138.128906 126.023438 C 125.996094 112.410156 108.179688 107.273438 108.179688 107.273438 L 114.960938 61.421875 " fill-opacity="1" fill-rule="nonzero"/><path fill="#92bea3" d="M 213.765625 232.425781 C 208.691406 223.644531 193.175781 214.921875 186.324219 215.15625 C 181.824219 215.3125 180.378906 218.3125 178.648438 220.238281 C 177.742188 221.242188 176.761719 221.960938 175.21875 221.808594 C 170.730469 221.363281 163.835938 203.09375 162.070312 195.09375 C 160.304688 187.089844 153.519531 168.804688 153.695312 165.214844 C 153.867188 161.625 157.195312 163.003906 161.964844 162.839844 C 163.1875 162.800781 164.710938 162.390625 166.300781 161.8125 C 170.914062 160.128906 176.082031 156.980469 176.082031 156.980469 C 185.289062 147.113281 178.183594 122.578125 170.242188 117.175781 C 164.699219 113.410156 159.136719 113.285156 153.40625 115.472656 C 150.925781 116.421875 148.417969 117.796875 145.863281 119.507812 C 137.40625 125.171875 135.78125 130.003906 135.5625 158.375 C 135.339844 186.746094 137.558594 194.429688 144.050781 208.847656 C 156.222656 235.890625 169.121094 244.109375 179.929688 254.785156 C 190.734375 265.457031 202.785156 260.269531 208.878906 255.28125 C 209.21875 255.003906 209.546875 254.714844 209.871094 254.410156 C 215.375 249.285156 218.554688 240.71875 213.765625 232.425781 " fill-opacity="1" fill-rule="nonzero"/><path fill="#fcf8eb" d="M 232.65625 160.785156 C 230.074219 154.636719 231.136719 147.855469 234.851562 142.855469 L 228.1875 137.878906 C 226.867188 139.652344 225.761719 141.605469 224.902344 143.707031 C 222.226562 150.261719 222.261719 157.46875 225 164 C 227.742188 170.53125 232.855469 175.601562 239.40625 178.28125 C 241.507812 179.136719 243.675781 179.71875 245.863281 180.019531 L 246.980469 171.773438 C 240.8125 170.921875 235.234375 166.933594 232.65625 160.785156 " fill-opacity="1" fill-rule="nonzero"/><path fill="#fcf8eb" d="M 218.292969 166.820312 C 213.503906 155.40625 215.472656 142.816406 222.367188 133.535156 L 215.703125 128.558594 C 213.589844 131.394531 211.839844 134.492188 210.484375 137.8125 C 208.417969 142.871094 207.363281 148.199219 207.347656 153.640625 C 207.332031 159.28125 208.441406 164.796875 210.636719 170.035156 C 212.835938 175.273438 215.996094 179.925781 220.027344 183.867188 C 223.921875 187.667969 228.460938 190.644531 233.515625 192.710938 C 236.832031 194.066406 240.265625 194.988281 243.769531 195.460938 L 244.886719 187.214844 C 233.4375 185.640625 223.082031 178.234375 218.292969 166.820312 " fill-opacity="1" fill-rule="nonzero"/><path fill="#fcf8eb" d="M 205.160156 172.339844 C 198.347656 156.109375 201.148438 138.210938 210.949219 125.011719 L 204.277344 120.03125 C 201.449219 123.828125 199.113281 127.972656 197.296875 132.417969 C 194.53125 139.195312 193.121094 146.324219 193.101562 153.609375 C 193.078125 161.15625 194.5625 168.542969 197.503906 175.554688 C 200.445312 182.570312 204.675781 188.796875 210.070312 194.066406 C 215.285156 199.15625 221.359375 203.140625 228.128906 205.910156 C 232.566406 207.726562 237.160156 208.957031 241.851562 209.597656 L 242.972656 201.339844 C 226.695312 199.101562 211.964844 188.566406 205.160156 172.339844 " fill-opacity="1" fill-rule="nonzero"/><path fill="#fcf8eb" d="M 166.550781 349.667969 C 166.550781 354.742188 162.441406 358.855469 157.367188 358.855469 C 152.296875 358.855469 148.1875 354.742188 148.1875 349.667969 C 148.1875 344.59375 152.296875 340.476562 157.367188 340.476562 C 162.441406 340.476562 166.550781 344.59375 166.550781 349.667969 " fill-opacity="1" fill-rule="nonzero"/></svg>