<svg xmlns="http://www.w3.org/2000/svg"
    xmlns:xlink="http://www.w3.org/1999/xlink" width="500" zoomAndPan="magnify" viewBox="0 0 375 374.999991" height="500" preserveAspectRatio="xMidYMid meet" version="1.0">
    <defs>
        <filter x="0%" y="0%" width="100%" height="100%" id="a08caad25e">
            <feColorMatrix values="0 0 0 0 1 0 0 0 0 1 0 0 0 0 1 0 0 0 1 0" color-interpolation-filters="sRGB"/>
        </filter>
        <g/>
        <clipPath id="4f9a653278">
            <path d="M 80.625 102.117188 L 272.625 102.117188 L 272.625 238.617188 L 80.625 238.617188 Z M 80.625 102.117188 " clip-rule="nonzero"/>
        </clipPath>
        <mask id="f086eeb820">
            <g filter="url(#a08caad25e)">
                <rect x="-37.5" width="450" fill="#000000" y="-37.499999" height="449.999989" fill-opacity="0.9294"/>
            </g>
        </mask>
        <clipPath id="75c107fc4f">
            <path d="M 4.8125 0.148438 L 183.921875 0.148438 L 183.921875 87.898438 L 4.8125 87.898438 Z M 4.8125 0.148438 " clip-rule="nonzero"/>
        </clipPath>
        <clipPath id="4f178bf5c5">
            <path d="M 183.875 0.148438 L 183.875 138.910156 L 1.03125 138.910156 L 1.03125 63.332031 C 13.65625 42.027344 36.847656 27.664062 63.226562 27.664062 C 70.3125 27.664062 77.160156 28.699219 83.640625 30.625 C 105.511719 37.128906 130.542969 34.03125 146.675781 17.863281 C 155.785156 8.730469 169.007812 0.148438 183.875 0.148438 Z M 183.875 0.148438 " clip-rule="nonzero"/>
        </clipPath>
        <linearGradient x1="-16.514366" gradientTransform="matrix(0.365691, 0, 0, 0.366579, 1.030675, 0.148731)" y1="52.224814" x2="468.100756" gradientUnits="userSpaceOnUse" y2="301.412649" id="2fafa00abc">
            <stop stop-opacity="1" stop-color="rgb(54.899597%, 32.199097%, 100%)" offset="0"/>
            <stop stop-opacity="1" stop-color="rgb(54.899597%, 32.199097%, 100%)" offset="0.125"/>
            <stop stop-opacity="1" stop-color="rgb(54.812622%, 32.192993%, 99.94812%)" offset="0.15625"/>
            <stop stop-opacity="1" stop-color="rgb(54.484558%, 32.174683%, 99.755859%)" offset="0.160156"/>
            <stop stop-opacity="1" stop-color="rgb(54.243469%, 32.16095%, 99.615479%)" offset="0.164062"/>
            <stop stop-opacity="1" stop-color="rgb(54.00238%, 32.147217%, 99.473572%)" offset="0.167969"/>
            <stop stop-opacity="1" stop-color="rgb(53.762817%, 32.133484%, 99.333191%)" offset="0.171875"/>
            <stop stop-opacity="1" stop-color="rgb(53.521729%, 32.118225%, 99.191284%)" offset="0.175781"/>
            <stop stop-opacity="1" stop-color="rgb(53.28064%, 32.104492%, 99.050903%)" offset="0.179688"/>
            <stop stop-opacity="1" stop-color="rgb(53.039551%, 32.090759%, 98.908997%)" offset="0.183594"/>
            <stop stop-opacity="1" stop-color="rgb(52.799988%, 32.077026%, 98.76709%)" offset="0.1875"/>
            <stop stop-opacity="1" stop-color="rgb(52.558899%, 32.063293%, 98.625183%)" offset="0.191406"/>
            <stop stop-opacity="1" stop-color="rgb(52.31781%, 32.049561%, 98.484802%)" offset="0.195312"/>
            <stop stop-opacity="1" stop-color="rgb(52.076721%, 32.034302%, 98.342896%)" offset="0.199219"/>
            <stop stop-opacity="1" stop-color="rgb(51.837158%, 32.020569%, 98.202515%)" offset="0.203125"/>
            <stop stop-opacity="1" stop-color="rgb(51.596069%, 32.006836%, 98.060608%)" offset="0.207031"/>
            <stop stop-opacity="1" stop-color="rgb(51.35498%, 31.993103%, 97.920227%)" offset="0.210938"/>
            <stop stop-opacity="1" stop-color="rgb(51.113892%, 31.977844%, 97.77832%)" offset="0.214844"/>
            <stop stop-opacity="1" stop-color="rgb(50.874329%, 31.964111%, 97.637939%)" offset="0.21875"/>
            <stop stop-opacity="1" stop-color="rgb(50.63324%, 31.950378%, 97.496033%)" offset="0.222656"/>
            <stop stop-opacity="1" stop-color="rgb(50.392151%, 31.936646%, 97.355652%)" offset="0.226562"/>
            <stop stop-opacity="1" stop-color="rgb(50.151062%, 31.922913%, 97.213745%)" offset="0.230469"/>
            <stop stop-opacity="1" stop-color="rgb(49.911499%, 31.90918%, 97.073364%)" offset="0.234375"/>
            <stop stop-opacity="1" stop-color="rgb(49.67041%, 31.893921%, 96.931458%)" offset="0.238281"/>
            <stop stop-opacity="1" stop-color="rgb(49.429321%, 31.880188%, 96.791077%)" offset="0.242188"/>
            <stop stop-opacity="1" stop-color="rgb(49.188232%, 31.866455%, 96.64917%)" offset="0.246094"/>
            <stop stop-opacity="1" stop-color="rgb(48.948669%, 31.852722%, 96.508789%)" offset="0.25"/>
            <stop stop-opacity="1" stop-color="rgb(48.707581%, 31.837463%, 96.366882%)" offset="0.253906"/>
            <stop stop-opacity="1" stop-color="rgb(48.466492%, 31.82373%, 96.226501%)" offset="0.257812"/>
            <stop stop-opacity="1" stop-color="rgb(48.225403%, 31.809998%, 96.084595%)" offset="0.261719"/>
            <stop stop-opacity="1" stop-color="rgb(47.98584%, 31.796265%, 95.944214%)" offset="0.265625"/>
            <stop stop-opacity="1" stop-color="rgb(47.744751%, 31.782532%, 95.802307%)" offset="0.269531"/>
            <stop stop-opacity="1" stop-color="rgb(47.503662%, 31.768799%, 95.661926%)" offset="0.273438"/>
            <stop stop-opacity="1" stop-color="rgb(47.262573%, 31.75354%, 95.52002%)" offset="0.277344"/>
            <stop stop-opacity="1" stop-color="rgb(47.02301%, 31.739807%, 95.379639%)" offset="0.28125"/>
            <stop stop-opacity="1" stop-color="rgb(46.781921%, 31.726074%, 95.237732%)" offset="0.285156"/>
            <stop stop-opacity="1" stop-color="rgb(46.540833%, 31.712341%, 95.097351%)" offset="0.289062"/>
            <stop stop-opacity="1" stop-color="rgb(46.299744%, 31.697083%, 94.955444%)" offset="0.292969"/>
            <stop stop-opacity="1" stop-color="rgb(46.060181%, 31.68335%, 94.815063%)" offset="0.296875"/>
            <stop stop-opacity="1" stop-color="rgb(45.819092%, 31.669617%, 94.673157%)" offset="0.300781"/>
            <stop stop-opacity="1" stop-color="rgb(45.578003%, 31.655884%, 94.532776%)" offset="0.304688"/>
            <stop stop-opacity="1" stop-color="rgb(45.336914%, 31.642151%, 94.390869%)" offset="0.308594"/>
            <stop stop-opacity="1" stop-color="rgb(45.097351%, 31.628418%, 94.250488%)" offset="0.3125"/>
            <stop stop-opacity="1" stop-color="rgb(44.856262%, 31.613159%, 94.108582%)" offset="0.316406"/>
            <stop stop-opacity="1" stop-color="rgb(44.615173%, 31.599426%, 93.968201%)" offset="0.320313"/>
            <stop stop-opacity="1" stop-color="rgb(44.374084%, 31.585693%, 93.826294%)" offset="0.324219"/>
            <stop stop-opacity="1" stop-color="rgb(44.134521%, 31.57196%, 93.685913%)" offset="0.328125"/>
            <stop stop-opacity="1" stop-color="rgb(43.893433%, 31.556702%, 93.544006%)" offset="0.332031"/>
            <stop stop-opacity="1" stop-color="rgb(43.652344%, 31.542969%, 93.403625%)" offset="0.335938"/>
            <stop stop-opacity="1" stop-color="rgb(43.411255%, 31.529236%, 93.261719%)" offset="0.339844"/>
            <stop stop-opacity="1" stop-color="rgb(43.171692%, 31.515503%, 93.121338%)" offset="0.34375"/>
            <stop stop-opacity="1" stop-color="rgb(42.930603%, 31.50177%, 92.979431%)" offset="0.347656"/>
            <stop stop-opacity="1" stop-color="rgb(42.689514%, 31.488037%, 92.83905%)" offset="0.351563"/>
            <stop stop-opacity="1" stop-color="rgb(42.448425%, 31.472778%, 92.697144%)" offset="0.355469"/>
            <stop stop-opacity="1" stop-color="rgb(42.208862%, 31.459045%, 92.556763%)" offset="0.359375"/>
            <stop stop-opacity="1" stop-color="rgb(41.967773%, 31.445312%, 92.414856%)" offset="0.363281"/>
            <stop stop-opacity="1" stop-color="rgb(41.726685%, 31.43158%, 92.272949%)" offset="0.367188"/>
            <stop stop-opacity="1" stop-color="rgb(41.485596%, 31.417847%, 92.131042%)" offset="0.371094"/>
            <stop stop-opacity="1" stop-color="rgb(41.246033%, 31.404114%, 91.990662%)" offset="0.375"/>
            <stop stop-opacity="1" stop-color="rgb(41.004944%, 31.388855%, 91.848755%)" offset="0.378906"/>
            <stop stop-opacity="1" stop-color="rgb(40.763855%, 31.375122%, 91.708374%)" offset="0.382812"/>
            <stop stop-opacity="1" stop-color="rgb(40.522766%, 31.361389%, 91.566467%)" offset="0.386719"/>
            <stop stop-opacity="1" stop-color="rgb(40.283203%, 31.347656%, 91.426086%)" offset="0.390625"/>
            <stop stop-opacity="1" stop-color="rgb(40.042114%, 31.332397%, 91.28418%)" offset="0.394531"/>
            <stop stop-opacity="1" stop-color="rgb(39.801025%, 31.318665%, 91.143799%)" offset="0.398438"/>
            <stop stop-opacity="1" stop-color="rgb(39.559937%, 31.304932%, 91.001892%)" offset="0.402344"/>
            <stop stop-opacity="1" stop-color="rgb(39.320374%, 31.291199%, 90.861511%)" offset="0.40625"/>
            <stop stop-opacity="1" stop-color="rgb(39.079285%, 31.277466%, 90.719604%)" offset="0.410156"/>
            <stop stop-opacity="1" stop-color="rgb(38.838196%, 31.263733%, 90.579224%)" offset="0.414062"/>
            <stop stop-opacity="1" stop-color="rgb(38.597107%, 31.248474%, 90.437317%)" offset="0.417969"/>
            <stop stop-opacity="1" stop-color="rgb(38.357544%, 31.234741%, 90.296936%)" offset="0.421875"/>
            <stop stop-opacity="1" stop-color="rgb(38.116455%, 31.221008%, 90.155029%)" offset="0.425781"/>
            <stop stop-opacity="1" stop-color="rgb(37.876892%, 31.207275%, 90.014648%)" offset="0.429688"/>
            <stop stop-opacity="1" stop-color="rgb(37.635803%, 31.192017%, 89.872742%)" offset="0.433594"/>
            <stop stop-opacity="1" stop-color="rgb(37.394714%, 31.178284%, 89.732361%)" offset="0.4375"/>
            <stop stop-opacity="1" stop-color="rgb(37.153625%, 31.164551%, 89.590454%)" offset="0.441406"/>
            <stop stop-opacity="1" stop-color="rgb(36.914062%, 31.150818%, 89.450073%)" offset="0.445312"/>
            <stop stop-opacity="1" stop-color="rgb(36.672974%, 31.137085%, 89.308167%)" offset="0.449219"/>
            <stop stop-opacity="1" stop-color="rgb(36.431885%, 31.123352%, 89.167786%)" offset="0.453125"/>
            <stop stop-opacity="1" stop-color="rgb(36.190796%, 31.108093%, 89.025879%)" offset="0.457031"/>
            <stop stop-opacity="1" stop-color="rgb(35.951233%, 31.09436%, 88.885498%)" offset="0.460938"/>
            <stop stop-opacity="1" stop-color="rgb(35.710144%, 31.080627%, 88.743591%)" offset="0.464844"/>
            <stop stop-opacity="1" stop-color="rgb(35.469055%, 31.066895%, 88.60321%)" offset="0.46875"/>
            <stop stop-opacity="1" stop-color="rgb(35.227966%, 31.051636%, 88.461304%)" offset="0.472656"/>
            <stop stop-opacity="1" stop-color="rgb(34.988403%, 31.037903%, 88.320923%)" offset="0.476562"/>
            <stop stop-opacity="1" stop-color="rgb(34.747314%, 31.02417%, 88.179016%)" offset="0.480469"/>
            <stop stop-opacity="1" stop-color="rgb(34.506226%, 31.010437%, 88.038635%)" offset="0.484375"/>
            <stop stop-opacity="1" stop-color="rgb(34.265137%, 30.996704%, 87.896729%)" offset="0.488281"/>
            <stop stop-opacity="1" stop-color="rgb(34.025574%, 30.982971%, 87.756348%)" offset="0.492188"/>
            <stop stop-opacity="1" stop-color="rgb(33.784485%, 30.967712%, 87.614441%)" offset="0.496094"/>
            <stop stop-opacity="1" stop-color="rgb(33.543396%, 30.953979%, 87.47406%)" offset="0.5"/>
            <stop stop-opacity="1" stop-color="rgb(33.302307%, 30.940247%, 87.332153%)" offset="0.503906"/>
            <stop stop-opacity="1" stop-color="rgb(33.062744%, 30.926514%, 87.191772%)" offset="0.507812"/>
            <stop stop-opacity="1" stop-color="rgb(32.821655%, 30.912781%, 87.049866%)" offset="0.511719"/>
            <stop stop-opacity="1" stop-color="rgb(32.580566%, 30.899048%, 86.909485%)" offset="0.515625"/>
            <stop stop-opacity="1" stop-color="rgb(32.339478%, 30.883789%, 86.767578%)" offset="0.519531"/>
            <stop stop-opacity="1" stop-color="rgb(32.099915%, 30.870056%, 86.627197%)" offset="0.523438"/>
            <stop stop-opacity="1" stop-color="rgb(31.858826%, 30.856323%, 86.485291%)" offset="0.527344"/>
            <stop stop-opacity="1" stop-color="rgb(31.617737%, 30.84259%, 86.34491%)" offset="0.53125"/>
            <stop stop-opacity="1" stop-color="rgb(31.376648%, 30.827332%, 86.203003%)" offset="0.535156"/>
            <stop stop-opacity="1" stop-color="rgb(31.137085%, 30.813599%, 86.062622%)" offset="0.539063"/>
            <stop stop-opacity="1" stop-color="rgb(30.895996%, 30.799866%, 85.920715%)" offset="0.542969"/>
            <stop stop-opacity="1" stop-color="rgb(30.654907%, 30.786133%, 85.778809%)" offset="0.546875"/>
            <stop stop-opacity="1" stop-color="rgb(30.413818%, 30.7724%, 85.636902%)" offset="0.550781"/>
            <stop stop-opacity="1" stop-color="rgb(30.174255%, 30.758667%, 85.496521%)" offset="0.554688"/>
            <stop stop-opacity="1" stop-color="rgb(29.933167%, 30.743408%, 85.354614%)" offset="0.558594"/>
            <stop stop-opacity="1" stop-color="rgb(29.692078%, 30.729675%, 85.214233%)" offset="0.5625"/>
            <stop stop-opacity="1" stop-color="rgb(29.450989%, 30.715942%, 85.072327%)" offset="0.566406"/>
            <stop stop-opacity="1" stop-color="rgb(29.211426%, 30.702209%, 84.931946%)" offset="0.570312"/>
            <stop stop-opacity="1" stop-color="rgb(28.970337%, 30.686951%, 84.790039%)" offset="0.574219"/>
            <stop stop-opacity="1" stop-color="rgb(28.729248%, 30.673218%, 84.649658%)" offset="0.578125"/>
            <stop stop-opacity="1" stop-color="rgb(28.488159%, 30.659485%, 84.507751%)" offset="0.582031"/>
            <stop stop-opacity="1" stop-color="rgb(28.248596%, 30.645752%, 84.367371%)" offset="0.585938"/>
            <stop stop-opacity="1" stop-color="rgb(28.007507%, 30.632019%, 84.225464%)" offset="0.589844"/>
            <stop stop-opacity="1" stop-color="rgb(27.766418%, 30.618286%, 84.085083%)" offset="0.59375"/>
            <stop stop-opacity="1" stop-color="rgb(27.52533%, 30.603027%, 83.943176%)" offset="0.597656"/>
            <stop stop-opacity="1" stop-color="rgb(27.285767%, 30.589294%, 83.802795%)" offset="0.601562"/>
            <stop stop-opacity="1" stop-color="rgb(27.044678%, 30.575562%, 83.660889%)" offset="0.605469"/>
            <stop stop-opacity="1" stop-color="rgb(26.803589%, 30.561829%, 83.520508%)" offset="0.609375"/>
            <stop stop-opacity="1" stop-color="rgb(26.5625%, 30.54657%, 83.378601%)" offset="0.613281"/>
            <stop stop-opacity="1" stop-color="rgb(26.322937%, 30.532837%, 83.23822%)" offset="0.617188"/>
            <stop stop-opacity="1" stop-color="rgb(26.081848%, 30.519104%, 83.096313%)" offset="0.621094"/>
            <stop stop-opacity="1" stop-color="rgb(25.840759%, 30.505371%, 82.955933%)" offset="0.625"/>
            <stop stop-opacity="1" stop-color="rgb(25.59967%, 30.491638%, 82.814026%)" offset="0.628906"/>
            <stop stop-opacity="1" stop-color="rgb(25.360107%, 30.477905%, 82.673645%)" offset="0.632812"/>
            <stop stop-opacity="1" stop-color="rgb(25.119019%, 30.462646%, 82.531738%)" offset="0.636719"/>
            <stop stop-opacity="1" stop-color="rgb(24.87793%, 30.448914%, 82.391357%)" offset="0.640625"/>
            <stop stop-opacity="1" stop-color="rgb(24.636841%, 30.435181%, 82.249451%)" offset="0.644531"/>
            <stop stop-opacity="1" stop-color="rgb(24.397278%, 30.421448%, 82.10907%)" offset="0.648438"/>
            <stop stop-opacity="1" stop-color="rgb(24.156189%, 30.407715%, 81.967163%)" offset="0.652344"/>
            <stop stop-opacity="1" stop-color="rgb(23.9151%, 30.393982%, 81.826782%)" offset="0.65625"/>
            <stop stop-opacity="1" stop-color="rgb(23.674011%, 30.378723%, 81.684875%)" offset="0.660156"/>
            <stop stop-opacity="1" stop-color="rgb(23.434448%, 30.36499%, 81.544495%)" offset="0.664063"/>
            <stop stop-opacity="1" stop-color="rgb(23.193359%, 30.351257%, 81.402588%)" offset="0.667969"/>
            <stop stop-opacity="1" stop-color="rgb(22.952271%, 30.337524%, 81.262207%)" offset="0.671875"/>
            <stop stop-opacity="1" stop-color="rgb(22.711182%, 30.322266%, 81.1203%)" offset="0.675781"/>
            <stop stop-opacity="1" stop-color="rgb(22.471619%, 30.308533%, 80.979919%)" offset="0.679688"/>
            <stop stop-opacity="1" stop-color="rgb(22.23053%, 30.2948%, 80.838013%)" offset="0.683594"/>
            <stop stop-opacity="1" stop-color="rgb(21.989441%, 30.281067%, 80.697632%)" offset="0.6875"/>
            <stop stop-opacity="1" stop-color="rgb(21.748352%, 30.267334%, 80.555725%)" offset="0.691406"/>
            <stop stop-opacity="1" stop-color="rgb(21.508789%, 30.253601%, 80.415344%)" offset="0.695312"/>
            <stop stop-opacity="1" stop-color="rgb(21.2677%, 30.238342%, 80.273438%)" offset="0.699219"/>
            <stop stop-opacity="1" stop-color="rgb(21.026611%, 30.224609%, 80.133057%)" offset="0.703125"/>
            <stop stop-opacity="1" stop-color="rgb(20.785522%, 30.210876%, 79.99115%)" offset="0.707031"/>
            <stop stop-opacity="1" stop-color="rgb(20.545959%, 30.197144%, 79.850769%)" offset="0.710937"/>
            <stop stop-opacity="1" stop-color="rgb(20.304871%, 30.181885%, 79.708862%)" offset="0.714844"/>
            <stop stop-opacity="1" stop-color="rgb(20.063782%, 30.168152%, 79.566956%)" offset="0.71875"/>
            <stop stop-opacity="1" stop-color="rgb(19.822693%, 30.154419%, 79.425049%)" offset="0.722656"/>
            <stop stop-opacity="1" stop-color="rgb(19.58313%, 30.140686%, 79.284668%)" offset="0.726563"/>
            <stop stop-opacity="1" stop-color="rgb(19.342041%, 30.126953%, 79.142761%)" offset="0.730469"/>
            <stop stop-opacity="1" stop-color="rgb(19.100952%, 30.11322%, 79.00238%)" offset="0.734375"/>
            <stop stop-opacity="1" stop-color="rgb(18.859863%, 30.097961%, 78.860474%)" offset="0.738281"/>
            <stop stop-opacity="1" stop-color="rgb(18.6203%, 30.084229%, 78.720093%)" offset="0.742188"/>
            <stop stop-opacity="1" stop-color="rgb(18.379211%, 30.070496%, 78.578186%)" offset="0.746094"/>
            <stop stop-opacity="1" stop-color="rgb(18.138123%, 30.056763%, 78.437805%)" offset="0.75"/>
            <stop stop-opacity="1" stop-color="rgb(17.897034%, 30.041504%, 78.295898%)" offset="0.753906"/>
            <stop stop-opacity="1" stop-color="rgb(17.657471%, 30.027771%, 78.155518%)" offset="0.757812"/>
            <stop stop-opacity="1" stop-color="rgb(17.416382%, 30.014038%, 78.013611%)" offset="0.761719"/>
            <stop stop-opacity="1" stop-color="rgb(17.175293%, 30.000305%, 77.87323%)" offset="0.765625"/>
            <stop stop-opacity="1" stop-color="rgb(16.934204%, 29.986572%, 77.731323%)" offset="0.769531"/>
            <stop stop-opacity="1" stop-color="rgb(16.694641%, 29.972839%, 77.590942%)" offset="0.773437"/>
            <stop stop-opacity="1" stop-color="rgb(16.453552%, 29.957581%, 77.449036%)" offset="0.777344"/>
            <stop stop-opacity="1" stop-color="rgb(16.212463%, 29.943848%, 77.308655%)" offset="0.78125"/>
            <stop stop-opacity="1" stop-color="rgb(15.971375%, 29.930115%, 77.166748%)" offset="0.785156"/>
            <stop stop-opacity="1" stop-color="rgb(15.731812%, 29.916382%, 77.026367%)" offset="0.789063"/>
            <stop stop-opacity="1" stop-color="rgb(15.490723%, 29.902649%, 76.88446%)" offset="0.792969"/>
            <stop stop-opacity="1" stop-color="rgb(15.249634%, 29.888916%, 76.74408%)" offset="0.796875"/>
            <stop stop-opacity="1" stop-color="rgb(15.008545%, 29.873657%, 76.602173%)" offset="0.800781"/>
            <stop stop-opacity="1" stop-color="rgb(14.768982%, 29.859924%, 76.461792%)" offset="0.804688"/>
            <stop stop-opacity="1" stop-color="rgb(14.527893%, 29.846191%, 76.319885%)" offset="0.808594"/>
            <stop stop-opacity="1" stop-color="rgb(14.286804%, 29.832458%, 76.179504%)" offset="0.8125"/>
            <stop stop-opacity="1" stop-color="rgb(14.045715%, 29.8172%, 76.037598%)" offset="0.816406"/>
            <stop stop-opacity="1" stop-color="rgb(13.806152%, 29.803467%, 75.897217%)" offset="0.820312"/>
            <stop stop-opacity="1" stop-color="rgb(13.565063%, 29.789734%, 75.75531%)" offset="0.824219"/>
            <stop stop-opacity="1" stop-color="rgb(13.323975%, 29.776001%, 75.614929%)" offset="0.828125"/>
            <stop stop-opacity="1" stop-color="rgb(13.082886%, 29.762268%, 75.473022%)" offset="0.832031"/>
            <stop stop-opacity="1" stop-color="rgb(12.843323%, 29.748535%, 75.332642%)" offset="0.835937"/>
            <stop stop-opacity="1" stop-color="rgb(12.602234%, 29.733276%, 75.190735%)" offset="0.839844"/>
            <stop stop-opacity="1" stop-color="rgb(12.361145%, 29.719543%, 75.050354%)" offset="0.84375"/>
            <stop stop-opacity="1" stop-color="rgb(12.120056%, 29.705811%, 74.908447%)" offset="0.847656"/>
            <stop stop-opacity="1" stop-color="rgb(11.880493%, 29.692078%, 74.768066%)" offset="0.851562"/>
            <stop stop-opacity="1" stop-color="rgb(11.639404%, 29.676819%, 74.62616%)" offset="0.855469"/>
            <stop stop-opacity="1" stop-color="rgb(11.398315%, 29.663086%, 74.485779%)" offset="0.859375"/>
            <stop stop-opacity="1" stop-color="rgb(11.157227%, 29.649353%, 74.343872%)" offset="0.863281"/>
            <stop stop-opacity="1" stop-color="rgb(10.917664%, 29.63562%, 74.203491%)" offset="0.867188"/>
            <stop stop-opacity="1" stop-color="rgb(10.676575%, 29.621887%, 74.061584%)" offset="0.871094"/>
            <stop stop-opacity="1" stop-color="rgb(10.435486%, 29.608154%, 73.921204%)" offset="0.875"/>
            <stop stop-opacity="1" stop-color="rgb(10.194397%, 29.592896%, 73.779297%)" offset="0.878906"/>
            <stop stop-opacity="1" stop-color="rgb(9.954834%, 29.579163%, 73.638916%)" offset="0.882812"/>
            <stop stop-opacity="1" stop-color="rgb(9.713745%, 29.56543%, 73.497009%)" offset="0.886719"/>
            <stop stop-opacity="1" stop-color="rgb(9.472656%, 29.551697%, 73.356628%)" offset="0.890625"/>
            <stop stop-opacity="1" stop-color="rgb(9.231567%, 29.536438%, 73.214722%)" offset="0.894531"/>
            <stop stop-opacity="1" stop-color="rgb(8.992004%, 29.522705%, 73.072815%)" offset="0.898437"/>
            <stop stop-opacity="1" stop-color="rgb(8.750916%, 29.508972%, 72.930908%)" offset="0.902344"/>
            <stop stop-opacity="1" stop-color="rgb(8.509827%, 29.495239%, 72.790527%)" offset="0.90625"/>
            <stop stop-opacity="1" stop-color="rgb(8.268738%, 29.481506%, 72.648621%)" offset="0.910156"/>
            <stop stop-opacity="1" stop-color="rgb(8.029175%, 29.467773%, 72.50824%)" offset="0.914062"/>
            <stop stop-opacity="1" stop-color="rgb(7.788086%, 29.452515%, 72.366333%)" offset="0.917969"/>
            <stop stop-opacity="1" stop-color="rgb(7.546997%, 29.438782%, 72.225952%)" offset="0.921875"/>
            <stop stop-opacity="1" stop-color="rgb(7.305908%, 29.425049%, 72.084045%)" offset="0.925781"/>
            <stop stop-opacity="1" stop-color="rgb(7.066345%, 29.411316%, 71.943665%)" offset="0.929688"/>
            <stop stop-opacity="1" stop-color="rgb(6.825256%, 29.397583%, 71.801758%)" offset="0.933594"/>
            <stop stop-opacity="1" stop-color="rgb(6.584167%, 29.38385%, 71.661377%)" offset="0.9375"/>
            <stop stop-opacity="1" stop-color="rgb(6.343079%, 29.368591%, 71.51947%)" offset="0.941406"/>
            <stop stop-opacity="1" stop-color="rgb(6.103516%, 29.354858%, 71.379089%)" offset="0.945312"/>
            <stop stop-opacity="1" stop-color="rgb(5.862427%, 29.341125%, 71.237183%)" offset="0.949219"/>
            <stop stop-opacity="1" stop-color="rgb(5.621338%, 29.327393%, 71.096802%)" offset="0.953125"/>
            <stop stop-opacity="1" stop-color="rgb(5.380249%, 29.312134%, 70.954895%)" offset="0.957031"/>
            <stop stop-opacity="1" stop-color="rgb(5.140686%, 29.298401%, 70.814514%)" offset="0.960938"/>
            <stop stop-opacity="1" stop-color="rgb(4.899597%, 29.284668%, 70.672607%)" offset="0.964844"/>
            <stop stop-opacity="1" stop-color="rgb(4.658508%, 29.270935%, 70.532227%)" offset="0.96875"/>
            <stop stop-opacity="1" stop-color="rgb(4.417419%, 29.257202%, 70.39032%)" offset="0.972656"/>
            <stop stop-opacity="1" stop-color="rgb(4.177856%, 29.243469%, 70.249939%)" offset="0.976563"/>
            <stop stop-opacity="1" stop-color="rgb(3.936768%, 29.22821%, 70.108032%)" offset="0.980469"/>
            <stop stop-opacity="1" stop-color="rgb(3.695679%, 29.214478%, 69.967651%)" offset="0.984375"/>
            <stop stop-opacity="1" stop-color="rgb(3.45459%, 29.200745%, 69.825745%)" offset="0.988281"/>
            <stop stop-opacity="1" stop-color="rgb(3.215027%, 29.187012%, 69.685364%)" offset="0.992188"/>
            <stop stop-opacity="1" stop-color="rgb(2.973938%, 29.171753%, 69.543457%)" offset="0.996094"/>
            <stop stop-opacity="1" stop-color="rgb(2.732849%, 29.15802%, 69.403076%)" offset="1"/>
        </linearGradient>
        <clipPath id="db0e349820">
            <rect x="0" width="184" y="0" height="140"/>
        </clipPath>
    </defs>
    <g clip-path="url(#4f9a653278)">
        <path fill="#2c342f" d="M 266.765625 102.148438 L 86.484375 102.148438 C 86.097656 102.148438 85.71875 102.1875 85.339844 102.261719 C 84.960938 102.335938 84.597656 102.449219 84.242188 102.597656 C 83.886719 102.742188 83.546875 102.921875 83.226562 103.136719 C 82.90625 103.351562 82.613281 103.59375 82.339844 103.867188 C 82.066406 104.136719 81.824219 104.433594 81.609375 104.753906 C 81.398438 105.074219 81.214844 105.410156 81.070312 105.765625 C 80.921875 106.121094 80.8125 106.488281 80.734375 106.863281 C 80.660156 107.242188 80.625 107.621094 80.625 108.007812 L 80.625 232.433594 C 80.625 232.835938 80.664062 233.238281 80.742188 233.632812 C 80.820312 234.027344 80.9375 234.414062 81.089844 234.785156 C 81.246094 235.160156 81.4375 235.515625 81.660156 235.851562 C 81.886719 236.1875 82.140625 236.496094 82.425781 236.78125 C 82.710938 237.066406 83.023438 237.324219 83.359375 237.546875 C 83.695312 237.773438 84.050781 237.960938 84.421875 238.117188 C 84.796875 238.269531 85.179688 238.386719 85.578125 238.464844 C 85.972656 238.546875 86.375 238.585938 86.777344 238.585938 L 266.472656 238.585938 C 266.875 238.585938 267.277344 238.546875 267.671875 238.464844 C 268.070312 238.386719 268.453125 238.269531 268.828125 238.117188 C 269.199219 237.960938 269.554688 237.773438 269.890625 237.546875 C 270.226562 237.324219 270.539062 237.066406 270.824219 236.78125 C 271.109375 236.496094 271.363281 236.1875 271.589844 235.851562 C 271.8125 235.515625 272.003906 235.160156 272.15625 234.785156 C 272.3125 234.414062 272.429688 234.027344 272.507812 233.632812 C 272.585938 233.238281 272.625 232.835938 272.625 232.433594 L 272.625 108.007812 C 272.625 107.621094 272.589844 107.242188 272.511719 106.863281 C 272.4375 106.488281 272.328125 106.121094 272.179688 105.765625 C 272.03125 105.410156 271.851562 105.074219 271.636719 104.753906 C 271.425781 104.433594 271.179688 104.136719 270.910156 103.867188 C 270.636719 103.59375 270.339844 103.351562 270.023438 103.136719 C 269.703125 102.921875 269.363281 102.742188 269.007812 102.597656 C 268.652344 102.449219 268.285156 102.335938 267.910156 102.261719 C 267.53125 102.1875 267.152344 102.148438 266.765625 102.148438 Z M 266.765625 102.148438 " fill-opacity="1" fill-rule="nonzero"/>
    </g>
    <path fill="#fffa45" d="M 103.710938 111.074219 C 103.710938 111.445312 103.640625 111.800781 103.5 112.144531 C 103.355469 112.484375 103.15625 112.789062 102.890625 113.050781 C 102.628906 113.3125 102.328125 113.511719 101.984375 113.65625 C 101.644531 113.796875 101.285156 113.867188 100.917969 113.867188 C 100.546875 113.867188 100.1875 113.796875 99.847656 113.65625 C 99.503906 113.511719 99.203125 113.3125 98.941406 113.050781 C 98.679688 112.789062 98.476562 112.484375 98.335938 112.144531 C 98.191406 111.800781 98.121094 111.445312 98.121094 111.074219 C 98.121094 110.703125 98.191406 110.347656 98.335938 110.003906 C 98.476562 109.664062 98.679688 109.359375 98.941406 109.097656 C 99.203125 108.835938 99.503906 108.636719 99.847656 108.492188 C 100.1875 108.351562 100.546875 108.28125 100.917969 108.28125 C 101.285156 108.28125 101.644531 108.351562 101.984375 108.492188 C 102.328125 108.636719 102.628906 108.835938 102.890625 109.097656 C 103.15625 109.359375 103.355469 109.664062 103.5 110.003906 C 103.640625 110.347656 103.710938 110.703125 103.710938 111.074219 Z M 103.710938 111.074219 " fill-opacity="1" fill-rule="nonzero"/>
    <path fill="#ff3939" d="M 93.097656 111.074219 C 93.097656 111.445312 93.027344 111.800781 92.886719 112.144531 C 92.746094 112.484375 92.542969 112.789062 92.28125 113.050781 C 92.019531 113.3125 91.714844 113.511719 91.375 113.65625 C 91.03125 113.796875 90.675781 113.867188 90.304688 113.867188 C 89.933594 113.867188 89.578125 113.796875 89.234375 113.65625 C 88.894531 113.511719 88.589844 113.3125 88.328125 113.050781 C 88.066406 112.789062 87.863281 112.484375 87.722656 112.144531 C 87.582031 111.800781 87.511719 111.445312 87.511719 111.074219 C 87.511719 110.703125 87.582031 110.347656 87.722656 110.003906 C 87.863281 109.664062 88.066406 109.359375 88.328125 109.097656 C 88.589844 108.835938 88.894531 108.636719 89.234375 108.492188 C 89.578125 108.351562 89.933594 108.28125 90.304688 108.28125 C 90.675781 108.28125 91.03125 108.351562 91.375 108.492188 C 91.714844 108.636719 92.019531 108.835938 92.28125 109.097656 C 92.542969 109.359375 92.746094 109.664062 92.886719 110.003906 C 93.027344 110.347656 93.097656 110.703125 93.097656 111.074219 Z M 93.097656 111.074219 " fill-opacity="1" fill-rule="nonzero"/>
    <path fill="#00af00" d="M 114.320312 111.074219 C 114.320312 111.445312 114.25 111.800781 114.109375 112.144531 C 113.96875 112.484375 113.765625 112.789062 113.503906 113.050781 C 113.242188 113.3125 112.941406 113.511719 112.597656 113.65625 C 112.253906 113.796875 111.898438 113.867188 111.527344 113.867188 C 111.15625 113.867188 110.800781 113.796875 110.457031 113.65625 C 110.117188 113.511719 109.8125 113.3125 109.550781 113.050781 C 109.289062 112.789062 109.085938 112.484375 108.945312 112.144531 C 108.804688 111.800781 108.734375 111.445312 108.734375 111.074219 C 108.734375 110.703125 108.804688 110.347656 108.945312 110.003906 C 109.085938 109.664062 109.289062 109.359375 109.550781 109.097656 C 109.8125 108.835938 110.117188 108.636719 110.457031 108.492188 C 110.800781 108.351562 111.15625 108.28125 111.527344 108.28125 C 111.898438 108.28125 112.253906 108.351562 112.597656 108.492188 C 112.941406 108.636719 113.242188 108.835938 113.503906 109.097656 C 113.765625 109.359375 113.96875 109.664062 114.109375 110.003906 C 114.25 110.347656 114.320312 110.703125 114.320312 111.074219 Z M 114.320312 111.074219 " fill-opacity="1" fill-rule="nonzero"/>
    <path fill="#ffffff" d="M 91.507812 120.148438 L 261.742188 120.148438 C 262.003906 120.148438 262.265625 120.171875 262.523438 120.222656 C 262.78125 120.277344 263.03125 120.351562 263.273438 120.453125 C 263.515625 120.550781 263.746094 120.675781 263.964844 120.820312 C 264.183594 120.96875 264.382812 121.132812 264.570312 121.316406 C 264.753906 121.503906 264.921875 121.707031 265.066406 121.921875 C 265.210938 122.140625 265.335938 122.371094 265.4375 122.613281 C 265.535156 122.855469 265.613281 123.105469 265.664062 123.363281 C 265.714844 123.621094 265.742188 123.882812 265.742188 124.144531 L 265.742188 227.167969 C 265.742188 227.429688 265.714844 227.6875 265.664062 227.945312 C 265.613281 228.203125 265.535156 228.453125 265.4375 228.695312 C 265.335938 228.9375 265.210938 229.167969 265.066406 229.386719 C 264.921875 229.605469 264.753906 229.808594 264.570312 229.992188 C 264.382812 230.179688 264.183594 230.34375 263.964844 230.488281 C 263.746094 230.636719 263.515625 230.757812 263.273438 230.859375 C 263.03125 230.960938 262.78125 231.035156 262.523438 231.085938 C 262.265625 231.136719 262.003906 231.164062 261.742188 231.164062 L 91.507812 231.164062 C 91.246094 231.164062 90.984375 231.136719 90.726562 231.085938 C 90.46875 231.035156 90.21875 230.960938 89.976562 230.859375 C 89.734375 230.757812 89.503906 230.636719 89.285156 230.488281 C 89.066406 230.34375 88.867188 230.179688 88.679688 229.992188 C 88.492188 229.808594 88.328125 229.605469 88.183594 229.386719 C 88.035156 229.167969 87.914062 228.9375 87.8125 228.695312 C 87.710938 228.453125 87.636719 228.203125 87.585938 227.945312 C 87.535156 227.6875 87.507812 227.429688 87.507812 227.167969 L 87.507812 124.144531 C 87.507812 123.882812 87.535156 123.621094 87.585938 123.363281 C 87.636719 123.105469 87.710938 122.855469 87.8125 122.613281 C 87.914062 122.371094 88.035156 122.140625 88.183594 121.921875 C 88.328125 121.707031 88.492188 121.503906 88.679688 121.316406 C 88.867188 121.132812 89.066406 120.96875 89.285156 120.820312 C 89.503906 120.675781 89.734375 120.550781 89.976562 120.453125 C 90.21875 120.351562 90.46875 120.277344 90.726562 120.222656 C 90.984375 120.171875 91.246094 120.148438 91.507812 120.148438 Z M 91.507812 120.148438 " fill-opacity="1" fill-rule="nonzero"/>
    <path fill="#ffffff" d="M 264.136719 106.90625 C 264.136719 107.074219 264.105469 107.238281 264.039062 107.390625 C 263.976562 107.546875 263.882812 107.683594 263.765625 107.800781 C 263.648438 107.917969 263.511719 108.011719 263.355469 108.074219 C 263.199219 108.140625 263.039062 108.171875 262.871094 108.171875 C 262.703125 108.171875 262.542969 108.140625 262.386719 108.074219 C 262.234375 108.011719 262.097656 107.917969 261.976562 107.800781 C 261.859375 107.683594 261.769531 107.546875 261.703125 107.390625 C 261.640625 107.238281 261.609375 107.074219 261.609375 106.90625 C 261.609375 106.742188 261.640625 106.578125 261.703125 106.425781 C 261.769531 106.269531 261.859375 106.132812 261.976562 106.015625 C 262.097656 105.894531 262.234375 105.804688 262.386719 105.742188 C 262.542969 105.675781 262.703125 105.644531 262.871094 105.644531 C 263.039062 105.644531 263.199219 105.675781 263.355469 105.742188 C 263.511719 105.804688 263.648438 105.894531 263.765625 106.015625 C 263.882812 106.132812 263.976562 106.269531 264.039062 106.425781 C 264.105469 106.578125 264.136719 106.742188 264.136719 106.90625 Z M 264.136719 106.90625 " fill-opacity="1" fill-rule="nonzero"/>
    <path fill="#ffffff" d="M 264.136719 111.074219 C 264.136719 111.242188 264.105469 111.402344 264.039062 111.558594 C 263.976562 111.710938 263.882812 111.847656 263.765625 111.96875 C 263.648438 112.085938 263.511719 112.175781 263.355469 112.242188 C 263.199219 112.304688 263.039062 112.335938 262.871094 112.335938 C 262.703125 112.335938 262.542969 112.304688 262.386719 112.242188 C 262.234375 112.175781 262.097656 112.085938 261.976562 111.96875 C 261.859375 111.847656 261.769531 111.710938 261.703125 111.558594 C 261.640625 111.402344 261.609375 111.242188 261.609375 111.074219 C 261.609375 110.90625 261.640625 110.746094 261.703125 110.589844 C 261.769531 110.4375 261.859375 110.300781 261.976562 110.179688 C 262.097656 110.0625 262.234375 109.972656 262.386719 109.90625 C 262.542969 109.84375 262.703125 109.808594 262.871094 109.808594 C 263.039062 109.808594 263.199219 109.84375 263.355469 109.90625 C 263.511719 109.972656 263.648438 110.0625 263.765625 110.179688 C 263.882812 110.300781 263.976562 110.4375 264.039062 110.589844 C 264.105469 110.746094 264.136719 110.90625 264.136719 111.074219 Z M 264.136719 111.074219 " fill-opacity="1" fill-rule="nonzero"/>
    <path fill="#ffffff" d="M 264.136719 115.238281 C 264.136719 115.40625 264.105469 115.570312 264.039062 115.722656 C 263.976562 115.878906 263.882812 116.015625 263.765625 116.132812 C 263.648438 116.25 263.511719 116.34375 263.355469 116.40625 C 263.199219 116.472656 263.039062 116.503906 262.871094 116.503906 C 262.703125 116.503906 262.542969 116.472656 262.386719 116.40625 C 262.234375 116.34375 262.097656 116.25 261.976562 116.132812 C 261.859375 116.015625 261.769531 115.878906 261.703125 115.722656 C 261.640625 115.570312 261.609375 115.40625 261.609375 115.238281 C 261.609375 115.074219 261.640625 114.910156 261.703125 114.757812 C 261.769531 114.601562 261.859375 114.464844 261.976562 114.347656 C 262.097656 114.226562 262.234375 114.136719 262.386719 114.074219 C 262.542969 114.007812 262.703125 113.976562 262.871094 113.976562 C 263.039062 113.976562 263.199219 114.007812 263.355469 114.074219 C 263.511719 114.136719 263.648438 114.226562 263.765625 114.347656 C 263.882812 114.464844 263.976562 114.601562 264.039062 114.757812 C 264.105469 114.910156 264.136719 115.074219 264.136719 115.238281 Z M 264.136719 115.238281 " fill-opacity="1" fill-rule="nonzero"/>
    <path fill="#fffa45" d="M 253.660156 107.765625 L 254.496094 109.457031 C 254.558594 109.582031 254.65625 109.652344 254.792969 109.671875 L 256.660156 109.945312 C 256.820312 109.96875 256.929688 110.058594 256.976562 110.210938 C 257.027344 110.367188 256.996094 110.503906 256.878906 110.617188 L 255.527344 111.933594 C 255.429688 112.027344 255.390625 112.144531 255.414062 112.28125 L 255.734375 114.140625 C 255.761719 114.300781 255.707031 114.429688 255.578125 114.523438 C 255.445312 114.621094 255.304688 114.628906 255.164062 114.554688 L 253.492188 113.675781 C 253.371094 113.613281 253.246094 113.613281 253.125 113.675781 L 251.457031 114.554688 C 251.3125 114.628906 251.171875 114.621094 251.042969 114.523438 C 250.910156 114.429688 250.855469 114.300781 250.882812 114.140625 L 251.203125 112.28125 C 251.226562 112.144531 251.1875 112.027344 251.089844 111.933594 L 249.738281 110.617188 C 249.621094 110.503906 249.589844 110.367188 249.640625 110.210938 C 249.691406 110.058594 249.796875 109.96875 249.957031 109.945312 L 251.824219 109.671875 C 251.960938 109.652344 252.058594 109.582031 252.121094 109.457031 L 252.957031 107.765625 C 253.027344 107.621094 253.144531 107.546875 253.308594 107.546875 C 253.472656 107.546875 253.589844 107.621094 253.660156 107.765625 Z M 253.660156 107.765625 " fill-opacity="1" fill-rule="nonzero"/>
    <g mask="url(#f086eeb820)">
        <g transform="matrix(1, 0, 0, 1, 82, 144)">
            <g clip-path="url(#db0e349820)">
                <g clip-path="url(#75c107fc4f)">
                    <g clip-path="url(#4f178bf5c5)">
                        <path fill="url(#2fafa00abc)" d="M 4.8125 0.148438 L 4.8125 87.898438 L 183.875 87.898438 L 183.875 0.148438 Z M 4.8125 0.148438 " fill-rule="nonzero"/>
                    </g>
                </g>
            </g>
        </g>
    </g>
    <g fill="#000000" fill-opacity="1">
        <g transform="translate(101.529637, 154.126393)">
            <g>
                <path d="M 16.890625 0 L 7.453125 -11.984375 L 5.78125 -14.28125 L 5.78125 0 L 2.390625 0 L 2.390625 -20.15625 L 5.453125 -20.15625 L 14.625 -8.078125 L 16.25 -5.8125 L 16.25 -20.15625 L 19.640625 -20.15625 L 19.640625 0 Z M 16.890625 0 "/>
            </g>
        </g>
    </g>
    <g fill="#000000" fill-opacity="1">
        <g transform="translate(123.708227, 154.126393)">
            <g>
                <path d="M 4.65625 -6.8125 L 4.65625 -5.453125 C 4.65625 -4.503906 5.007812 -3.71875 5.71875 -3.09375 C 6.425781 -2.46875 7.375 -2.15625 8.5625 -2.15625 C 9.488281 -2.15625 10.257812 -2.414062 10.875 -2.9375 C 11.488281 -3.457031 11.941406 -4.101562 12.234375 -4.875 L 14.828125 -3.96875 C 13.660156 -1.164062 11.515625 0.234375 8.390625 0.234375 C 7.378906 0.234375 6.445312 0.0859375 5.59375 -0.203125 C 4.75 -0.492188 4.023438 -0.90625 3.421875 -1.4375 C 2.816406 -1.96875 2.34375 -2.613281 2 -3.375 C 1.65625 -4.132812 1.484375 -4.988281 1.484375 -5.9375 L 1.484375 -8.203125 C 1.484375 -9.085938 1.640625 -9.910156 1.953125 -10.671875 C 2.265625 -11.441406 2.707031 -12.109375 3.28125 -12.671875 C 3.851562 -13.242188 4.554688 -13.691406 5.390625 -14.015625 C 6.234375 -14.335938 7.191406 -14.5 8.265625 -14.5 C 9.316406 -14.5 10.257812 -14.34375 11.09375 -14.03125 C 11.925781 -13.71875 12.625 -13.273438 13.1875 -12.703125 C 13.757812 -12.140625 14.195312 -11.46875 14.5 -10.6875 C 14.800781 -9.914062 14.953125 -9.066406 14.953125 -8.140625 L 14.953125 -6.8125 Z M 11.890625 -9.078125 C 11.890625 -9.460938 11.800781 -9.84375 11.625 -10.21875 C 11.457031 -10.59375 11.21875 -10.914062 10.90625 -11.1875 C 10.59375 -11.457031 10.21875 -11.675781 9.78125 -11.84375 C 9.351562 -12.019531 8.867188 -12.109375 8.328125 -12.109375 C 7.191406 -12.109375 6.296875 -11.8125 5.640625 -11.21875 C 4.984375 -10.632812 4.65625 -9.921875 4.65625 -9.078125 L 4.65625 -8.46875 L 11.890625 -8.46875 Z M 11.890625 -9.078125 "/>
            </g>
        </g>
    </g>
    <g fill="#000000" fill-opacity="1">
        <g transform="translate(140.107687, 154.126393)">
            <g>
                <path d="M 17.671875 0 L 14.984375 0 L 12.3125 -7.984375 L 11.53125 -10.375 L 10.75 -7.984375 L 8.171875 0 L 5.484375 0 L 0.359375 -14.171875 L 3.65625 -14.171875 L 6.140625 -5.96875 L 6.84375 -3.359375 L 7.53125 -5.96875 L 10.171875 -14.171875 L 13.140625 -14.171875 L 15.640625 -5.96875 L 16.34375 -3.359375 L 17.046875 -5.96875 L 19.671875 -14.171875 L 22.796875 -14.171875 Z M 17.671875 0 "/>
            </g>
        </g>
    </g>
    <g fill="#000000" fill-opacity="1">
        <g transform="translate(163.436056, 154.126393)">
            <g>
                <path d="M 18.34375 -13.40625 C 18.34375 -12.582031 18.207031 -11.816406 17.9375 -11.109375 C 17.664062 -10.398438 17.238281 -9.789062 16.65625 -9.28125 C 16.082031 -8.78125 15.351562 -8.390625 14.46875 -8.109375 C 13.582031 -7.828125 12.515625 -7.6875 11.265625 -7.6875 L 5.875 -7.6875 L 5.875 0 L 2.390625 0 L 2.390625 -20.15625 L 11.265625 -20.15625 C 12.515625 -20.15625 13.582031 -20.015625 14.46875 -19.734375 C 15.351562 -19.453125 16.082031 -19.050781 16.65625 -18.53125 C 17.238281 -18.019531 17.664062 -17.410156 17.9375 -16.703125 C 18.207031 -15.992188 18.34375 -15.21875 18.34375 -14.375 Z M 14.828125 -14.40625 C 14.828125 -15.207031 14.578125 -15.859375 14.078125 -16.359375 C 13.585938 -16.867188 12.738281 -17.125 11.53125 -17.125 L 5.875 -17.125 L 5.875 -10.5625 L 11.625 -10.5625 C 12.8125 -10.5625 13.640625 -10.820312 14.109375 -11.34375 C 14.585938 -11.875 14.828125 -12.539062 14.828125 -13.34375 Z M 14.828125 -14.40625 "/>
            </g>
        </g>
    </g>
    <g fill="#000000" fill-opacity="1">
        <g transform="translate(183.163824, 154.126393)">
            <g>
                <path d="M 14.59375 0.234375 C 14.226562 0.234375 13.878906 0.191406 13.546875 0.109375 C 13.210938 0.0351562 12.914062 -0.09375 12.65625 -0.28125 C 12.40625 -0.476562 12.207031 -0.734375 12.0625 -1.046875 C 11.925781 -1.359375 11.867188 -1.742188 11.890625 -2.203125 C 11.242188 -1.421875 10.441406 -0.816406 9.484375 -0.390625 C 8.523438 0.0234375 7.503906 0.234375 6.421875 0.234375 C 4.898438 0.234375 3.671875 -0.125 2.734375 -0.84375 C 1.796875 -1.570312 1.328125 -2.570312 1.328125 -3.84375 L 1.328125 -3.96875 C 1.328125 -4.875 1.59375 -5.632812 2.125 -6.25 C 2.664062 -6.863281 3.382812 -7.335938 4.28125 -7.671875 C 5.175781 -8.003906 6.210938 -8.203125 7.390625 -8.265625 C 8.578125 -8.328125 9.828125 -8.265625 11.140625 -8.078125 L 11.140625 -9.171875 C 11.140625 -10.078125 10.894531 -10.78125 10.40625 -11.28125 C 9.925781 -11.789062 9.210938 -12.046875 8.265625 -12.046875 C 7.335938 -12.046875 6.582031 -11.835938 6 -11.421875 C 5.425781 -11.015625 4.910156 -10.425781 4.453125 -9.65625 L 2.125 -10.859375 C 2.75 -12.015625 3.550781 -12.910156 4.53125 -13.546875 C 5.507812 -14.179688 6.703125 -14.5 8.109375 -14.5 C 9.160156 -14.5 10.066406 -14.363281 10.828125 -14.09375 C 11.597656 -13.820312 12.234375 -13.429688 12.734375 -12.921875 C 13.242188 -12.421875 13.617188 -11.816406 13.859375 -11.109375 C 14.097656 -10.398438 14.21875 -9.613281 14.21875 -8.75 L 14.21875 -3.125 C 14.21875 -2.71875 14.316406 -2.429688 14.515625 -2.265625 C 14.722656 -2.109375 15.128906 -2.03125 15.734375 -2.03125 L 15.734375 0.234375 Z M 11.140625 -6.171875 C 8.960938 -6.515625 7.304688 -6.488281 6.171875 -6.09375 C 5.046875 -5.707031 4.484375 -5.03125 4.484375 -4.0625 L 4.484375 -4 C 4.484375 -3.488281 4.707031 -3.050781 5.15625 -2.6875 C 5.613281 -2.332031 6.222656 -2.15625 6.984375 -2.15625 C 7.472656 -2.15625 7.957031 -2.222656 8.4375 -2.359375 C 8.925781 -2.503906 9.367188 -2.695312 9.765625 -2.9375 C 10.171875 -3.175781 10.5 -3.460938 10.75 -3.796875 C 11.007812 -4.128906 11.140625 -4.5 11.140625 -4.90625 Z M 11.140625 -6.171875 "/>
            </g>
        </g>
    </g>
    <g fill="#000000" fill-opacity="1">
        <g transform="translate(199.775093, 154.126393)">
            <g>
                <path d="M 15.890625 -14.46875 C 15.890625 -14.039062 15.828125 -13.695312 15.703125 -13.4375 C 15.585938 -13.175781 15.4375 -12.96875 15.25 -12.8125 C 15.070312 -12.664062 14.875 -12.566406 14.65625 -12.515625 C 14.445312 -12.460938 14.242188 -12.4375 14.046875 -12.4375 C 13.816406 -12.4375 13.617188 -12.441406 13.453125 -12.453125 C 13.285156 -12.460938 13.109375 -12.507812 12.921875 -12.59375 C 13.390625 -12.25 13.726562 -11.847656 13.9375 -11.390625 C 14.144531 -10.941406 14.25 -10.492188 14.25 -10.046875 L 14.25 -9.859375 C 14.25 -8.585938 13.695312 -7.5625 12.59375 -6.78125 C 11.5 -6.007812 10.003906 -5.625 8.109375 -5.625 C 8.003906 -5.625 7.859375 -5.632812 7.671875 -5.65625 C 7.484375 -5.675781 7.28125 -5.695312 7.0625 -5.71875 C 6.851562 -5.738281 6.648438 -5.765625 6.453125 -5.796875 C 6.265625 -5.828125 6.128906 -5.851562 6.046875 -5.875 C 5.347656 -5.875 4.835938 -5.742188 4.515625 -5.484375 C 4.191406 -5.234375 4.03125 -4.957031 4.03125 -4.65625 C 4.03125 -4.457031 4.097656 -4.28125 4.234375 -4.125 C 4.378906 -3.976562 4.632812 -3.847656 5 -3.734375 C 5.375 -3.628906 5.882812 -3.546875 6.53125 -3.484375 C 7.175781 -3.421875 8.003906 -3.390625 9.015625 -3.390625 C 10.304688 -3.390625 11.378906 -3.289062 12.234375 -3.09375 C 13.097656 -2.90625 13.785156 -2.65625 14.296875 -2.34375 C 14.816406 -2.03125 15.179688 -1.65625 15.390625 -1.21875 C 15.597656 -0.789062 15.703125 -0.332031 15.703125 0.15625 L 15.703125 0.328125 C 15.703125 0.859375 15.539062 1.390625 15.21875 1.921875 C 14.894531 2.453125 14.410156 2.9375 13.765625 3.375 C 13.117188 3.8125 12.300781 4.164062 11.3125 4.4375 C 10.332031 4.707031 9.175781 4.84375 7.84375 4.84375 C 6.8125 4.84375 5.859375 4.757812 4.984375 4.59375 C 4.117188 4.4375 3.378906 4.210938 2.765625 3.921875 C 2.148438 3.628906 1.671875 3.269531 1.328125 2.84375 C 0.984375 2.414062 0.8125 1.941406 0.8125 1.421875 L 0.8125 1.296875 C 0.8125 0.710938 1.082031 0.132812 1.625 -0.4375 C 2.175781 -1.007812 3.097656 -1.410156 4.390625 -1.640625 C 3.296875 -1.859375 2.519531 -2.160156 2.0625 -2.546875 C 1.613281 -2.929688 1.390625 -3.382812 1.390625 -3.90625 C 1.390625 -4.53125 1.675781 -5.097656 2.25 -5.609375 C 2.832031 -6.128906 3.578125 -6.445312 4.484375 -6.5625 C 3.671875 -6.882812 3.054688 -7.347656 2.640625 -7.953125 C 2.234375 -8.566406 2.03125 -9.234375 2.03125 -9.953125 L 2.03125 -10.046875 C 2.03125 -10.671875 2.191406 -11.253906 2.515625 -11.796875 C 2.835938 -12.347656 3.269531 -12.816406 3.8125 -13.203125 C 4.351562 -13.597656 4.992188 -13.910156 5.734375 -14.140625 C 6.472656 -14.378906 7.265625 -14.5 8.109375 -14.5 C 8.953125 -14.5 9.632812 -14.429688 10.15625 -14.296875 C 10.6875 -14.171875 11.113281 -14.054688 11.4375 -13.953125 C 12.25 -13.785156 12.773438 -13.90625 13.015625 -14.3125 C 13.253906 -14.71875 13.375 -15.265625 13.375 -15.953125 L 15.734375 -15.953125 C 15.835938 -15.503906 15.890625 -15.175781 15.890625 -14.96875 C 15.890625 -14.769531 15.890625 -14.601562 15.890625 -14.46875 Z M 11.265625 -10.078125 C 11.265625 -10.679688 11.015625 -11.210938 10.515625 -11.671875 C 10.023438 -12.140625 9.222656 -12.375 8.109375 -12.375 C 7.023438 -12.375 6.222656 -12.140625 5.703125 -11.671875 C 5.191406 -11.210938 4.9375 -10.679688 4.9375 -10.078125 L 4.9375 -10.015625 C 4.9375 -9.410156 5.191406 -8.875 5.703125 -8.40625 C 6.222656 -7.945312 7.023438 -7.71875 8.109375 -7.71875 C 9.222656 -7.71875 10.023438 -7.945312 10.515625 -8.40625 C 11.015625 -8.875 11.265625 -9.410156 11.265625 -10.015625 Z M 12.59375 0.453125 C 12.59375 -0.046875 12.320312 -0.441406 11.78125 -0.734375 C 11.25 -1.035156 10.28125 -1.1875 8.875 -1.1875 C 7.925781 -1.1875 7.128906 -1.132812 6.484375 -1.03125 C 5.847656 -0.925781 5.332031 -0.78125 4.9375 -0.59375 C 4.550781 -0.414062 4.269531 -0.21875 4.09375 0 C 3.925781 0.21875 3.84375 0.453125 3.84375 0.703125 L 3.84375 0.78125 C 3.84375 1.3125 4.164062 1.726562 4.8125 2.03125 C 5.457031 2.332031 6.515625 2.484375 7.984375 2.484375 C 9.523438 2.484375 10.675781 2.289062 11.4375 1.90625 C 12.207031 1.519531 12.59375 1.066406 12.59375 0.546875 Z M 12.59375 0.453125 "/>
            </g>
        </g>
    </g>
    <g fill="#000000" fill-opacity="1">
        <g transform="translate(216.114047, 154.126393)">
            <g>
                <path d="M 4.65625 -6.8125 L 4.65625 -5.453125 C 4.65625 -4.503906 5.007812 -3.71875 5.71875 -3.09375 C 6.425781 -2.46875 7.375 -2.15625 8.5625 -2.15625 C 9.488281 -2.15625 10.257812 -2.414062 10.875 -2.9375 C 11.488281 -3.457031 11.941406 -4.101562 12.234375 -4.875 L 14.828125 -3.96875 C 13.660156 -1.164062 11.515625 0.234375 8.390625 0.234375 C 7.378906 0.234375 6.445312 0.0859375 5.59375 -0.203125 C 4.75 -0.492188 4.023438 -0.90625 3.421875 -1.4375 C 2.816406 -1.96875 2.34375 -2.613281 2 -3.375 C 1.65625 -4.132812 1.484375 -4.988281 1.484375 -5.9375 L 1.484375 -8.203125 C 1.484375 -9.085938 1.640625 -9.910156 1.953125 -10.671875 C 2.265625 -11.441406 2.707031 -12.109375 3.28125 -12.671875 C 3.851562 -13.242188 4.554688 -13.691406 5.390625 -14.015625 C 6.234375 -14.335938 7.191406 -14.5 8.265625 -14.5 C 9.316406 -14.5 10.257812 -14.34375 11.09375 -14.03125 C 11.925781 -13.71875 12.625 -13.273438 13.1875 -12.703125 C 13.757812 -12.140625 14.195312 -11.46875 14.5 -10.6875 C 14.800781 -9.914062 14.953125 -9.066406 14.953125 -8.140625 L 14.953125 -6.8125 Z M 11.890625 -9.078125 C 11.890625 -9.460938 11.800781 -9.84375 11.625 -10.21875 C 11.457031 -10.59375 11.21875 -10.914062 10.90625 -11.1875 C 10.59375 -11.457031 10.21875 -11.675781 9.78125 -11.84375 C 9.351562 -12.019531 8.867188 -12.109375 8.328125 -12.109375 C 7.191406 -12.109375 6.296875 -11.8125 5.640625 -11.21875 C 4.984375 -10.632812 4.65625 -9.921875 4.65625 -9.078125 L 4.65625 -8.46875 L 11.890625 -8.46875 Z M 11.890625 -9.078125 "/>
            </g>
        </g>
    </g>
    <g fill="#fffa45" fill-opacity="1">
        <g transform="translate(157.598563, 214.8531)">
            <g>
                <path d="M 13.453125 -7.5625 C 13.515625 -7.539062 13.546875 -7.5 13.546875 -7.4375 C 13.546875 -7.375 13.535156 -7.328125 13.515625 -7.296875 C 13.492188 -7.273438 13.367188 -7.25 13.140625 -7.21875 C 12.910156 -7.1875 12.742188 -7.117188 12.640625 -7.015625 C 12.546875 -6.921875 12.460938 -6.8125 12.390625 -6.6875 C 12.316406 -6.5625 12.25 -6.429688 12.1875 -6.296875 C 12.132812 -6.171875 12.082031 -6.054688 12.03125 -5.953125 L 9.75 -0.015625 C 9.675781 0.148438 9.613281 0.234375 9.5625 0.234375 L 8.890625 0.234375 C 8.835938 0.234375 8.773438 0.144531 8.703125 -0.03125 L 6.84375 -5.078125 L 4.890625 -0.015625 C 4.816406 0.148438 4.753906 0.234375 4.703125 0.234375 L 4.046875 0.234375 C 3.984375 0.234375 3.921875 0.144531 3.859375 -0.03125 L 1.625 -6.0625 C 1.414062 -6.625 1.0625 -6.984375 0.5625 -7.140625 C 0.519531 -7.160156 0.472656 -7.171875 0.421875 -7.171875 C 0.179688 -7.191406 0.0625 -7.257812 0.0625 -7.375 C 0.0625 -7.5 0.128906 -7.5625 0.265625 -7.5625 L 4 -7.5625 C 4.050781 -7.5625 4.078125 -7.515625 4.078125 -7.421875 C 4.078125 -7.335938 4.046875 -7.28125 3.984375 -7.25 C 3.878906 -7.21875 3.703125 -7.203125 3.453125 -7.203125 C 3.046875 -7.210938 2.84375 -7.046875 2.84375 -6.703125 L 2.859375 -6.5 L 4.5625 -1.84375 C 4.675781 -1.550781 4.789062 -1.554688 4.90625 -1.859375 C 4.914062 -1.890625 5.148438 -2.476562 5.609375 -3.625 C 6.066406 -4.769531 6.359375 -5.582031 6.484375 -6.0625 C 6.273438 -6.625 5.921875 -6.984375 5.421875 -7.140625 C 5.378906 -7.160156 5.332031 -7.171875 5.28125 -7.171875 C 5.039062 -7.191406 4.921875 -7.257812 4.921875 -7.375 C 4.921875 -7.5 4.988281 -7.5625 5.125 -7.5625 L 8.859375 -7.5625 C 8.898438 -7.5625 8.921875 -7.515625 8.921875 -7.421875 C 8.921875 -7.335938 8.894531 -7.28125 8.84375 -7.25 C 8.738281 -7.21875 8.5625 -7.203125 8.3125 -7.203125 C 7.90625 -7.210938 7.703125 -7.046875 7.703125 -6.703125 L 7.71875 -6.5 L 9.421875 -1.84375 C 9.535156 -1.550781 9.648438 -1.554688 9.765625 -1.859375 C 9.773438 -1.890625 9.847656 -2.070312 9.984375 -2.40625 C 10.671875 -4.132812 11.078125 -5.203125 11.203125 -5.609375 C 11.328125 -6.015625 11.390625 -6.289062 11.390625 -6.4375 C 11.390625 -6.59375 11.304688 -6.753906 11.140625 -6.921875 C 10.984375 -7.085938 10.765625 -7.171875 10.484375 -7.171875 C 10.210938 -7.171875 10.078125 -7.253906 10.078125 -7.421875 C 10.078125 -7.515625 10.140625 -7.5625 10.265625 -7.5625 Z M 13.453125 -7.5625 "/>
            </g>
        </g>
    </g>
    <g fill="#fffa45" fill-opacity="1">
        <g transform="translate(172.672265, 214.8531)">
            <g>
                <path d="M 1.9375 -4.421875 C 1.84375 -4.421875 1.796875 -4.21875 1.796875 -3.8125 C 1.796875 -2.945312 2.050781 -2.21875 2.5625 -1.625 C 3.082031 -1.039062 3.722656 -0.75 4.484375 -0.75 C 5.253906 -0.75 5.988281 -1.078125 6.6875 -1.734375 C 6.707031 -1.742188 6.722656 -1.75 6.734375 -1.75 L 6.78125 -1.75 C 6.8125 -1.75 6.84375 -1.722656 6.875 -1.671875 C 6.90625 -1.617188 6.9375 -1.585938 6.96875 -1.578125 C 6.3125 -0.785156 5.546875 -0.238281 4.671875 0.0625 C 4.367188 0.175781 4.023438 0.234375 3.640625 0.234375 C 3.265625 0.234375 2.878906 0.128906 2.484375 -0.078125 C 2.085938 -0.296875 1.753906 -0.578125 1.484375 -0.921875 C 0.890625 -1.628906 0.59375 -2.515625 0.59375 -3.578125 C 0.59375 -4.640625 0.914062 -5.601562 1.5625 -6.46875 C 2.207031 -7.34375 3.09375 -7.78125 4.21875 -7.78125 C 5.03125 -7.78125 5.691406 -7.414062 6.203125 -6.6875 C 6.722656 -5.96875 6.984375 -5.332031 6.984375 -4.78125 C 6.984375 -4.539062 6.925781 -4.421875 6.8125 -4.421875 Z M 2.03125 -5.234375 C 2.03125 -5.128906 2.082031 -5.078125 2.1875 -5.078125 L 5.34375 -5.078125 C 5.488281 -5.078125 5.5625 -5.160156 5.5625 -5.328125 C 5.5625 -5.734375 5.378906 -6.144531 5.015625 -6.5625 C 4.660156 -6.988281 4.269531 -7.203125 3.84375 -7.203125 C 3.414062 -7.203125 3.03125 -7.007812 2.6875 -6.625 C 2.34375 -6.25 2.125 -5.816406 2.03125 -5.328125 Z M 2.03125 -5.234375 "/>
            </g>
        </g>
    </g>
    <g fill="#fffa45" fill-opacity="1">
        <g transform="translate(181.769267, 214.8531)">
            <g>
                <path d="M 2.640625 -7.03125 C 2.640625 -6.851562 2.675781 -6.765625 2.75 -6.765625 C 2.832031 -6.765625 3.191406 -6.945312 3.828125 -7.3125 C 4.566406 -7.625 5.128906 -7.78125 5.515625 -7.78125 C 5.898438 -7.78125 6.269531 -7.664062 6.625 -7.4375 C 6.976562 -7.21875 7.28125 -6.925781 7.53125 -6.5625 C 8.050781 -5.8125 8.3125 -4.898438 8.3125 -3.828125 C 8.3125 -2.765625 7.9375 -1.820312 7.1875 -1 C 6.445312 -0.175781 5.472656 0.234375 4.265625 0.234375 C 3.472656 0.234375 2.742188 0.132812 2.078125 -0.0625 C 1.878906 -0.113281 1.710938 -0.15625 1.578125 -0.1875 C 1.441406 -0.226562 1.363281 -0.265625 1.34375 -0.296875 C 1.332031 -0.335938 1.328125 -0.378906 1.328125 -0.421875 L 1.328125 -11.75 C 1.328125 -11.988281 1.195312 -12.148438 0.9375 -12.234375 C 0.820312 -12.273438 0.703125 -12.304688 0.578125 -12.328125 C 0.453125 -12.359375 0.347656 -12.382812 0.265625 -12.40625 C 0.191406 -12.425781 0.144531 -12.445312 0.125 -12.46875 C 0.101562 -12.488281 0.09375 -12.53125 0.09375 -12.59375 C 0.09375 -12.65625 0.140625 -12.710938 0.234375 -12.765625 L 2.375 -13.765625 C 2.4375 -13.796875 2.476562 -13.8125 2.5 -13.8125 C 2.59375 -13.8125 2.640625 -13.742188 2.640625 -13.609375 Z M 4.421875 -6.765625 C 3.921875 -6.765625 3.359375 -6.582031 2.734375 -6.21875 C 2.671875 -6.1875 2.640625 -6.117188 2.640625 -6.015625 L 2.640625 -2.046875 C 2.691406 -1.535156 2.910156 -1.132812 3.296875 -0.84375 C 3.679688 -0.5625 4.101562 -0.421875 4.5625 -0.421875 C 5.375 -0.421875 6 -0.738281 6.4375 -1.375 C 6.875 -2.019531 7.09375 -2.75 7.09375 -3.5625 C 7.09375 -4.382812 6.867188 -5.125 6.421875 -5.78125 C 5.972656 -6.4375 5.304688 -6.765625 4.421875 -6.765625 Z M 4.421875 -6.765625 "/>
            </g>
        </g>
    </g>
    <g fill="#fffa45" fill-opacity="1">
        <g transform="translate(192.284902, 214.8531)">
            <g/>
        </g>
    </g>
    <g fill="#fffa45" fill-opacity="1">
        <g transform="translate(198.192093, 214.8531)">
            <g>
                <path d="M 5.765625 -7.4375 C 6.015625 -7.351562 6.164062 -7.3125 6.21875 -7.3125 C 6.28125 -7.3125 6.316406 -7.3125 6.328125 -7.3125 C 6.335938 -7.3125 6.359375 -7.347656 6.390625 -7.421875 L 6.390625 -11.75 C 6.390625 -11.988281 6.257812 -12.148438 6 -12.234375 C 5.882812 -12.273438 5.757812 -12.304688 5.625 -12.328125 C 5.5 -12.359375 5.398438 -12.382812 5.328125 -12.40625 C 5.253906 -12.425781 5.207031 -12.445312 5.1875 -12.46875 C 5.164062 -12.488281 5.15625 -12.53125 5.15625 -12.59375 C 5.15625 -12.65625 5.195312 -12.710938 5.28125 -12.765625 L 7.421875 -13.765625 C 7.492188 -13.796875 7.535156 -13.8125 7.546875 -13.8125 C 7.640625 -13.8125 7.6875 -13.742188 7.6875 -13.609375 L 7.6875 -1.65625 C 7.71875 -1.40625 7.789062 -1.226562 7.90625 -1.125 C 8.019531 -1.019531 8.203125 -0.96875 8.453125 -0.96875 L 8.9375 -1 C 8.96875 -1 8.984375 -0.96875 8.984375 -0.90625 C 8.984375 -0.84375 8.941406 -0.789062 8.859375 -0.75 L 6.625 0.171875 C 6.5625 0.210938 6.503906 0.234375 6.453125 0.234375 C 6.410156 0.234375 6.390625 0.160156 6.390625 0.015625 L 6.390625 -0.75 C 6.390625 -0.800781 6.375 -0.828125 6.34375 -0.828125 C 6.300781 -0.828125 6.066406 -0.703125 5.640625 -0.453125 C 4.335938 0.316406 3.238281 0.429688 2.34375 -0.109375 C 1.625 -0.546875 1.140625 -1.238281 0.890625 -2.1875 C 0.773438 -2.625 0.71875 -3.085938 0.71875 -3.578125 C 0.71875 -4.078125 0.816406 -4.570312 1.015625 -5.0625 C 1.222656 -5.550781 1.503906 -5.984375 1.859375 -6.359375 C 2.648438 -7.160156 3.601562 -7.5625 4.71875 -7.5625 C 5.175781 -7.5625 5.523438 -7.519531 5.765625 -7.4375 Z M 1.984375 -3.828125 C 1.984375 -2.984375 2.21875 -2.242188 2.6875 -1.609375 C 3.15625 -0.972656 3.8125 -0.65625 4.65625 -0.65625 C 5.019531 -0.65625 5.398438 -0.742188 5.796875 -0.921875 C 6.191406 -1.109375 6.390625 -1.25 6.390625 -1.34375 L 6.390625 -5.671875 C 6.390625 -5.785156 6.316406 -5.914062 6.171875 -6.0625 C 5.722656 -6.675781 5.125 -6.984375 4.375 -6.984375 C 3.632812 -6.984375 3.050781 -6.671875 2.625 -6.046875 C 2.195312 -5.421875 1.984375 -4.679688 1.984375 -3.828125 Z M 1.984375 -3.828125 "/>
            </g>
        </g>
    </g>
    <g fill="#fffa45" fill-opacity="1">
        <g transform="translate(208.632171, 214.8531)">
            <g>
                <path d="M 1.9375 -4.421875 C 1.84375 -4.421875 1.796875 -4.21875 1.796875 -3.8125 C 1.796875 -2.945312 2.050781 -2.21875 2.5625 -1.625 C 3.082031 -1.039062 3.722656 -0.75 4.484375 -0.75 C 5.253906 -0.75 5.988281 -1.078125 6.6875 -1.734375 C 6.707031 -1.742188 6.722656 -1.75 6.734375 -1.75 L 6.78125 -1.75 C 6.8125 -1.75 6.84375 -1.722656 6.875 -1.671875 C 6.90625 -1.617188 6.9375 -1.585938 6.96875 -1.578125 C 6.3125 -0.785156 5.546875 -0.238281 4.671875 0.0625 C 4.367188 0.175781 4.023438 0.234375 3.640625 0.234375 C 3.265625 0.234375 2.878906 0.128906 2.484375 -0.078125 C 2.085938 -0.296875 1.753906 -0.578125 1.484375 -0.921875 C 0.890625 -1.628906 0.59375 -2.515625 0.59375 -3.578125 C 0.59375 -4.640625 0.914062 -5.601562 1.5625 -6.46875 C 2.207031 -7.34375 3.09375 -7.78125 4.21875 -7.78125 C 5.03125 -7.78125 5.691406 -7.414062 6.203125 -6.6875 C 6.722656 -5.96875 6.984375 -5.332031 6.984375 -4.78125 C 6.984375 -4.539062 6.925781 -4.421875 6.8125 -4.421875 Z M 2.03125 -5.234375 C 2.03125 -5.128906 2.082031 -5.078125 2.1875 -5.078125 L 5.34375 -5.078125 C 5.488281 -5.078125 5.5625 -5.160156 5.5625 -5.328125 C 5.5625 -5.734375 5.378906 -6.144531 5.015625 -6.5625 C 4.660156 -6.988281 4.269531 -7.203125 3.84375 -7.203125 C 3.414062 -7.203125 3.03125 -7.007812 2.6875 -6.625 C 2.34375 -6.25 2.125 -5.816406 2.03125 -5.328125 Z M 2.03125 -5.234375 "/>
            </g>
        </g>
    </g>
    <g fill="#fffa45" fill-opacity="1">
        <g transform="translate(217.72917, 214.8531)">
            <g>
                <path d="M 4.65625 -5.75 C 4.65625 -5.625 4.609375 -5.5625 4.515625 -5.5625 C 4.429688 -5.5625 4.363281 -5.628906 4.3125 -5.765625 C 4.175781 -6.128906 3.972656 -6.453125 3.703125 -6.734375 C 3.441406 -7.023438 3.113281 -7.171875 2.71875 -7.171875 C 2.207031 -7.171875 1.863281 -6.914062 1.6875 -6.40625 C 1.625 -6.226562 1.59375 -6.046875 1.59375 -5.859375 C 1.59375 -5.679688 1.707031 -5.476562 1.9375 -5.25 C 2.175781 -5.019531 2.566406 -4.75 3.109375 -4.4375 C 3.648438 -4.125 4.039062 -3.859375 4.28125 -3.640625 C 4.84375 -3.140625 5.125 -2.5625 5.125 -1.90625 C 5.125 -1.25 4.878906 -0.726562 4.390625 -0.34375 C 3.910156 0.0390625 3.351562 0.234375 2.71875 0.234375 C 2.375 0.234375 2.0625 0.1875 1.78125 0.09375 C 1.507812 0 1.351562 -0.046875 1.3125 -0.046875 C 1.269531 -0.046875 1.203125 0 1.109375 0.09375 C 1.015625 0.1875 0.941406 0.234375 0.890625 0.234375 L 0.75 0.234375 C 0.71875 0.234375 0.675781 -0.0664062 0.625 -0.671875 C 0.570312 -1.285156 0.546875 -1.644531 0.546875 -1.75 C 0.546875 -1.863281 0.554688 -1.925781 0.578125 -1.9375 C 0.597656 -1.945312 0.628906 -1.953125 0.671875 -1.953125 C 0.710938 -1.953125 0.75 -1.9375 0.78125 -1.90625 C 0.8125 -1.882812 0.835938 -1.851562 0.859375 -1.8125 C 0.890625 -1.769531 0.910156 -1.722656 0.921875 -1.671875 C 0.929688 -1.628906 0.96875 -1.546875 1.03125 -1.421875 C 1.40625 -0.609375 1.988281 -0.203125 2.78125 -0.203125 C 3.132812 -0.203125 3.414062 -0.332031 3.625 -0.59375 C 3.84375 -0.851562 3.953125 -1.144531 3.953125 -1.46875 C 3.953125 -1.789062 3.867188 -2.0625 3.703125 -2.28125 C 3.535156 -2.5 3.328125 -2.695312 3.078125 -2.875 C 2.828125 -3.050781 2.554688 -3.222656 2.265625 -3.390625 C 1.140625 -4.054688 0.578125 -4.789062 0.578125 -5.59375 C 0.578125 -6.1875 0.832031 -6.695312 1.34375 -7.125 C 1.851562 -7.5625 2.378906 -7.78125 2.921875 -7.78125 C 3.472656 -7.78125 3.878906 -7.722656 4.140625 -7.609375 C 4.398438 -7.492188 4.550781 -7.394531 4.59375 -7.3125 C 4.632812 -7.226562 4.65625 -6.960938 4.65625 -6.515625 Z M 4.65625 -5.75 "/>
            </g>
        </g>
    </g>
    <g fill="#fffa45" fill-opacity="1">
        <g transform="translate(224.769587, 214.8531)">
            <g>
                <path d="M 0.59375 0 C 0.53125 -0.0078125 0.5 -0.0507812 0.5 -0.125 C 0.5 -0.21875 0.632812 -0.28125 0.90625 -0.3125 C 1.507812 -0.40625 1.8125 -0.726562 1.8125 -1.28125 L 1.8125 -5.71875 C 1.8125 -5.957031 1.679688 -6.117188 1.421875 -6.203125 C 1.304688 -6.242188 1.179688 -6.273438 1.046875 -6.296875 C 0.921875 -6.328125 0.820312 -6.351562 0.75 -6.375 C 0.675781 -6.394531 0.628906 -6.414062 0.609375 -6.4375 C 0.585938 -6.457031 0.578125 -6.5 0.578125 -6.5625 C 0.578125 -6.625 0.617188 -6.679688 0.703125 -6.734375 L 2.84375 -7.734375 C 2.914062 -7.765625 2.957031 -7.78125 2.96875 -7.78125 C 3.0625 -7.78125 3.109375 -7.710938 3.109375 -7.578125 L 3.109375 -1.28125 C 3.109375 -0.726562 3.414062 -0.40625 4.03125 -0.3125 C 4.289062 -0.28125 4.421875 -0.222656 4.421875 -0.140625 C 4.421875 -0.0546875 4.390625 -0.0078125 4.328125 0 Z M 2.328125 -10.140625 C 2.097656 -10.140625 1.894531 -10.210938 1.71875 -10.359375 C 1.550781 -10.503906 1.46875 -10.707031 1.46875 -10.96875 C 1.46875 -11.226562 1.550781 -11.429688 1.71875 -11.578125 C 1.882812 -11.734375 2.082031 -11.8125 2.3125 -11.8125 C 2.539062 -11.8125 2.734375 -11.722656 2.890625 -11.546875 C 3.054688 -11.367188 3.140625 -11.175781 3.140625 -10.96875 C 3.140625 -10.757812 3.0625 -10.566406 2.90625 -10.390625 C 2.757812 -10.222656 2.566406 -10.140625 2.328125 -10.140625 Z M 2.328125 -10.140625 "/>
            </g>
        </g>
    </g>
    <g fill="#fffa45" fill-opacity="1">
        <g transform="translate(230.895025, 214.8531)">
            <g>
                <path d="M 6.875 -6.984375 C 6.875 -6.984375 7.625 -7.015625 9.125 -7.078125 C 9.257812 -7.078125 9.34375 -7.0625 9.375 -7.03125 C 9.414062 -7.007812 9.457031 -6.914062 9.5 -6.75 C 9.550781 -6.582031 9.578125 -6.425781 9.578125 -6.28125 C 9.578125 -6.132812 9.5625 -6.050781 9.53125 -6.03125 C 9.5 -6.007812 9.441406 -6 9.359375 -6 L 7.5 -6 C 7.53125 -5.9375 7.566406 -5.867188 7.609375 -5.796875 C 7.648438 -5.734375 7.703125 -5.625 7.765625 -5.46875 C 7.828125 -5.3125 7.859375 -5.066406 7.859375 -4.734375 C 7.859375 -4.410156 7.773438 -4.070312 7.609375 -3.71875 C 7.453125 -3.363281 7.21875 -3.046875 6.90625 -2.765625 C 6.226562 -2.148438 5.347656 -1.84375 4.265625 -1.84375 C 3.972656 -1.84375 3.65625 -1.894531 3.3125 -2 C 3.226562 -1.914062 3.113281 -1.832031 2.96875 -1.75 C 2.832031 -1.675781 2.703125 -1.601562 2.578125 -1.53125 C 2.234375 -1.34375 2.0625 -1.148438 2.0625 -0.953125 C 2.0625 -0.484375 2.847656 -0.238281 4.421875 -0.21875 C 6.003906 -0.207031 7.046875 -0.15625 7.546875 -0.0625 C 8.046875 0.0195312 8.429688 0.203125 8.703125 0.484375 C 9.128906 0.910156 9.34375 1.398438 9.34375 1.953125 C 9.34375 2.429688 9.140625 2.921875 8.734375 3.421875 C 8.023438 4.316406 6.941406 4.910156 5.484375 5.203125 C 4.960938 5.316406 4.410156 5.375 3.828125 5.375 C 2.765625 5.375 1.957031 5.179688 1.40625 4.796875 C 0.863281 4.410156 0.59375 3.945312 0.59375 3.40625 C 0.59375 3.101562 0.660156 2.851562 0.796875 2.65625 C 0.941406 2.46875 1.117188 2.285156 1.328125 2.109375 C 1.546875 1.941406 1.78125 1.765625 2.03125 1.578125 C 2.289062 1.390625 2.539062 1.148438 2.78125 0.859375 C 2.238281 0.816406 1.773438 0.644531 1.390625 0.34375 C 1.015625 0.0507812 0.828125 -0.234375 0.828125 -0.515625 C 0.828125 -0.804688 0.898438 -1.019531 1.046875 -1.15625 C 1.203125 -1.289062 1.390625 -1.40625 1.609375 -1.5 C 1.828125 -1.601562 2.054688 -1.695312 2.296875 -1.78125 C 2.535156 -1.863281 2.742188 -1.972656 2.921875 -2.109375 C 2.296875 -2.359375 1.8125 -2.695312 1.46875 -3.125 C 1.125 -3.5625 0.953125 -4.035156 0.953125 -4.546875 C 0.953125 -5.503906 1.300781 -6.285156 2 -6.890625 C 2.695312 -7.492188 3.535156 -7.796875 4.515625 -7.796875 C 5.503906 -7.796875 6.289062 -7.523438 6.875 -6.984375 Z M 2.3125 1.78125 C 2.175781 1.90625 2.066406 2.039062 1.984375 2.1875 C 1.898438 2.332031 1.859375 2.515625 1.859375 2.734375 C 1.859375 2.960938 1.9375 3.195312 2.09375 3.4375 C 2.257812 3.6875 2.476562 3.90625 2.75 4.09375 C 3.351562 4.539062 4.082031 4.765625 4.9375 4.765625 C 5.789062 4.765625 6.5625 4.515625 7.25 4.015625 C 7.945312 3.523438 8.296875 2.984375 8.296875 2.390625 C 8.296875 1.804688 8.007812 1.410156 7.4375 1.203125 C 7.164062 1.117188 6.472656 1.066406 5.359375 1.046875 C 4.242188 1.023438 3.519531 0.992188 3.1875 0.953125 C 3.039062 1.117188 2.890625 1.265625 2.734375 1.390625 C 2.585938 1.523438 2.445312 1.65625 2.3125 1.78125 Z M 6.46875 -4.75 C 6.46875 -5.539062 6.269531 -6.179688 5.875 -6.671875 C 5.488281 -7.171875 4.96875 -7.421875 4.3125 -7.421875 C 3.476562 -7.421875 2.882812 -7.023438 2.53125 -6.234375 C 2.394531 -5.929688 2.328125 -5.582031 2.328125 -5.1875 C 2.328125 -4.382812 2.492188 -3.71875 2.828125 -3.1875 C 3.234375 -2.550781 3.765625 -2.234375 4.421875 -2.234375 C 5.078125 -2.234375 5.582031 -2.453125 5.9375 -2.890625 C 6.289062 -3.335938 6.46875 -3.957031 6.46875 -4.75 Z M 6.46875 -4.75 "/>
            </g>
        </g>
    </g>
    <g fill="#fffa45" fill-opacity="1">
        <g transform="translate(241.821969, 214.8531)">
            <g>
                <path d="M 6.75 -2.640625 L 6.734375 -4.421875 C 6.734375 -5.140625 6.671875 -5.644531 6.546875 -5.9375 C 6.421875 -6.226562 6.265625 -6.445312 6.078125 -6.59375 C 5.890625 -6.75 5.632812 -6.828125 5.3125 -6.828125 C 4.988281 -6.828125 4.304688 -6.570312 3.265625 -6.0625 C 3.128906 -5.976562 3.054688 -5.898438 3.046875 -5.828125 L 3.046875 -1.3125 C 3.046875 -0.75 3.347656 -0.425781 3.953125 -0.34375 C 4.210938 -0.300781 4.34375 -0.234375 4.34375 -0.140625 C 4.34375 -0.0546875 4.316406 -0.0078125 4.265625 0 L 0.515625 0 C 0.460938 -0.0078125 0.4375 -0.0507812 0.4375 -0.125 C 0.4375 -0.226562 0.566406 -0.300781 0.828125 -0.34375 C 1.429688 -0.425781 1.734375 -0.75 1.734375 -1.3125 L 1.734375 -6.125 C 1.734375 -6.363281 1.609375 -6.53125 1.359375 -6.625 C 1.242188 -6.65625 1.117188 -6.679688 0.984375 -6.703125 C 0.859375 -6.734375 0.757812 -6.757812 0.6875 -6.78125 C 0.613281 -6.8125 0.566406 -6.832031 0.546875 -6.84375 C 0.523438 -6.863281 0.515625 -6.90625 0.515625 -6.96875 C 0.515625 -7.039062 0.554688 -7.097656 0.640625 -7.140625 L 2.78125 -8.140625 C 2.84375 -8.179688 2.882812 -8.203125 2.90625 -8.203125 C 3 -8.203125 3.046875 -8.132812 3.046875 -8 L 3.046875 -6.6875 C 3.066406 -6.632812 3.085938 -6.609375 3.109375 -6.609375 C 3.148438 -6.609375 3.273438 -6.65625 3.484375 -6.75 C 3.960938 -6.988281 4.441406 -7.21875 4.921875 -7.4375 C 5.410156 -7.664062 5.816406 -7.78125 6.140625 -7.78125 C 7.429688 -7.78125 8.078125 -6.601562 8.078125 -4.25 L 8 -1.796875 L 8 -1.3125 C 8 -0.875 8.21875 -0.585938 8.65625 -0.453125 C 8.84375 -0.390625 9.019531 -0.34375 9.1875 -0.3125 C 9.363281 -0.289062 9.476562 -0.269531 9.53125 -0.25 C 9.582031 -0.226562 9.609375 -0.179688 9.609375 -0.109375 C 9.609375 -0.046875 9.582031 -0.0078125 9.53125 0 L 5.484375 0 C 5.421875 -0.0078125 5.390625 -0.0507812 5.390625 -0.125 C 5.390625 -0.226562 5.519531 -0.300781 5.78125 -0.34375 C 6.382812 -0.425781 6.6875 -0.769531 6.6875 -1.375 C 6.726562 -1.65625 6.75 -2.078125 6.75 -2.640625 Z M 6.75 -2.640625 "/>
            </g>
        </g>
    </g>
</svg>