<svg id="Layer_1" data-name="Layer 1"
    xmlns="http://www.w3.org/2000/svg" viewBox="0 0 1920 1080">
    <defs>
        <style>.cls-1{fill:#fbb03b;}.cls-2{fill:#ff0;}.cls-3{fill:lime;}.cls-4{fill:red;}.cls-5{fill:none;stroke:#fff;}.cls-5,.cls-6{stroke-miterlimit:10;}.cls-6{stroke:#000;}</style>
    </defs>
    <path class="cls-1" d="M934,222.5l4.46,175.58c-1.81-.05-3.63-.08-5.46-.08-81.35,0-153.94,50.25-201.42,128.85l-.58-.35-188-128-.45-.4C638.34,290.37,778,222.5,933.5,222.5Z"/>
    <path class="cls-2" d="M1321.39,394.68l-.17.15L1134,525.5l-.29.18c-46.42-76.17-116.52-125.42-195.25-127.6L934,222.5C1087.65,222.64,1225.79,289.05,1321.39,394.68Z"/>
    <path class="cls-3" d="M1456.5,745.5h-.5l-264-1c-.09-83-21.93-159.17-58.29-218.82l.29-.18,187.22-130.67.17-.15A521.07,521.07,0,0,1,1456.5,745.5Z"/>
    <path class="cls-4" d="M731,526.5l.58.35C695.64,586.33,674.09,662,674,744.5l-263.5,1a521,521,0,0,1,132-347.4l.45.4Z"/>
    <path class="cls-5" d="M410.5,745.5a521,521,0,0,1,132-347.4C638.34,290.37,778,222.5,933.5,222.5h.5c153.65.14,291.79,66.55,387.39,172.18A521.07,521.07,0,0,1,1456.5,745.5"/>
    <path class="cls-5" d="M1192,745v-.5c-.09-83-21.93-159.17-58.29-218.82-46.42-76.17-116.52-125.42-195.25-127.6-1.81-.05-3.63-.08-5.46-.08-81.35,0-153.94,50.25-201.42,128.85C695.64,586.33,674.09,662,674,744.5v.5"/>
    <polyline class="cls-5" points="410 745.5 410.5 745.5 674 744.5"/>
    <line class="cls-5" x1="1192" y1="744.5" x2="1456" y2="745.5"/>
    <line class="cls-5" x1="543" y1="398.5" x2="731" y2="526.5"/>
    <polyline class="cls-5" points="934 222.5 938.46 398.08 938.5 399.5"/>
    <line class="cls-5" x1="1321.22" y1="394.83" x2="1134" y2="525.5"/>
    <polygon class="cls-6" points="817.07 654.7 617.06 653.94 517 667.47 616.95 681.75 816.97 682.51 934.77 682.66 936.07 654.96 817.07 654.7"/>
</svg>